<svg width="180" height="40" viewBox="0 0 180 40" fill="none" xmlns="http://www.w3.org/2000/svg">
<path d="M6 1H174V39H6V1Z" fill="white"/>
<path d="M6 1.5H174V0.5H6V1.5ZM174 38.5H6V39.5H174V38.5Z" fill="black"/>
<path d="M19.0327 28.228C17.7047 28.228 16.5487 27.948 15.5647 27.388C14.5887 26.828 13.8287 26.056 13.2847 25.072C12.7487 24.08 12.4807 22.94 12.4807 21.652C12.4807 20.676 12.6287 19.784 12.9247 18.976C13.2207 18.16 13.6447 17.456 14.1967 16.864C14.7487 16.264 15.4047 15.804 16.1647 15.484C16.9247 15.156 17.7727 14.992 18.7087 14.992C19.6127 14.992 20.3647 15.14 20.9647 15.436C21.5727 15.724 22.0447 16.124 22.3807 16.636C22.7167 17.14 22.9327 17.72 23.0287 18.376H23.4487L23.1007 20.188C22.9967 19.468 22.7607 18.836 22.3927 18.292C22.0247 17.74 21.5447 17.312 20.9527 17.008C20.3607 16.696 19.6767 16.54 18.9007 16.54C17.9727 16.54 17.1567 16.76 16.4527 17.2C15.7567 17.632 15.2127 18.232 14.8207 19C14.4367 19.76 14.2447 20.644 14.2447 21.652C14.2447 22.628 14.4407 23.492 14.8327 24.244C15.2327 24.988 15.7887 25.572 16.5007 25.996C17.2207 26.42 18.0687 26.632 19.0447 26.632C20.0527 26.632 20.9207 26.412 21.6487 25.972C22.3767 25.524 22.9087 24.924 23.2447 24.172L24.8407 24.88C24.3847 25.912 23.6527 26.728 22.6447 27.328C21.6447 27.928 20.4407 28.228 19.0327 28.228ZM23.1007 20.188V15.22H24.8287V20.188H23.1007ZM33.6127 28.228C32.2847 28.228 31.1207 27.948 30.1207 27.388C29.1207 26.82 28.3407 26.044 27.7807 25.06C27.2207 24.076 26.9407 22.94 26.9407 21.652C26.9407 20.356 27.2207 19.208 27.7807 18.208C28.3407 17.2 29.1207 16.412 30.1207 15.844C31.1207 15.276 32.2847 14.992 33.6127 14.992C34.9407 14.992 36.1047 15.276 37.1047 15.844C38.1047 16.412 38.8847 17.2 39.4447 18.208C40.0047 19.208 40.2847 20.356 40.2847 21.652C40.2847 22.94 40.0047 24.076 39.4447 25.06C38.8847 26.044 38.1047 26.82 37.1047 27.388C36.1047 27.948 34.9407 28.228 33.6127 28.228ZM33.6127 26.632C34.5727 26.632 35.4167 26.424 36.1447 26.008C36.8807 25.592 37.4527 25.012 37.8607 24.268C38.2767 23.516 38.4847 22.644 38.4847 21.652C38.4847 20.652 38.2767 19.772 37.8607 19.012C37.4527 18.252 36.8807 17.66 36.1447 17.236C35.4167 16.804 34.5727 16.588 33.6127 16.588C32.6527 16.588 31.8047 16.804 31.0687 17.236C30.3407 17.66 29.7687 18.252 29.3527 19.012C28.9447 19.772 28.7407 20.652 28.7407 21.652C28.7407 22.644 28.9447 23.516 29.3527 24.268C29.7687 25.012 30.3407 25.592 31.0687 26.008C31.8047 26.424 32.6527 26.632 33.6127 26.632ZM46.0055 26.512H48.6335V28H41.6495V26.512H44.2775V10.528H41.6495V9.04H46.0055V26.512ZM56.5589 28.228C55.2309 28.228 54.0669 27.948 53.0669 27.388C52.0669 26.82 51.2869 26.044 50.7269 25.06C50.1669 24.076 49.8869 22.94 49.8869 21.652C49.8869 20.356 50.1669 19.208 50.7269 18.208C51.2869 17.2 52.0669 16.412 53.0669 15.844C54.0669 15.276 55.2309 14.992 56.5589 14.992C57.8869 14.992 59.0509 15.276 60.0509 15.844C61.0509 16.412 61.8309 17.2 62.3909 18.208C62.9509 19.208 63.2309 20.356 63.2309 21.652C63.2309 22.94 62.9509 24.076 62.3909 25.06C61.8309 26.044 61.0509 26.82 60.0509 27.388C59.0509 27.948 57.8869 28.228 56.5589 28.228ZM56.5589 26.632C57.5189 26.632 58.3629 26.424 59.0909 26.008C59.8269 25.592 60.3989 25.012 60.8069 24.268C61.2229 23.516 61.4309 22.644 61.4309 21.652C61.4309 20.652 61.2229 19.772 60.8069 19.012C60.3989 18.252 59.8269 17.66 59.0909 17.236C58.3629 16.804 57.5189 16.588 56.5589 16.588C55.5989 16.588 54.7509 16.804 54.0149 17.236C53.2869 17.66 52.7149 18.252 52.2989 19.012C51.8909 19.772 51.6869 20.652 51.6869 21.652C51.6869 22.644 51.8909 23.516 52.2989 24.268C52.7149 25.012 53.2869 25.592 54.0149 26.008C54.7509 26.424 55.5989 26.632 56.5589 26.632ZM69.5798 26.512H72.0758V28H65.2238V26.512H67.8518V16.708H65.2238V15.22H69.5798V26.512ZM74.4878 17.056C74.3438 17.016 74.1878 16.984 74.0198 16.96C73.8598 16.936 73.6838 16.924 73.4918 16.924C72.3078 16.924 71.3598 17.368 70.6478 18.256C69.9358 19.136 69.5798 20.36 69.5798 21.928L69.1718 19.132H69.6638C69.7758 18.284 70.0078 17.556 70.3598 16.948C70.7118 16.332 71.1678 15.86 71.7278 15.532C72.2958 15.196 72.9598 15.028 73.7198 15.028C73.8638 15.028 73.9918 15.036 74.1038 15.052C74.2238 15.06 74.3518 15.076 74.4878 15.1V17.056ZM86.002 26.512H88.27V28H81.706V26.512H84.274V10.528H81.706V9.04H86.002V26.512ZM93.37 26.512V19.792C93.37 18.752 93.134 17.936 92.662 17.344C92.198 16.752 91.466 16.456 90.466 16.456C89.626 16.456 88.87 16.672 88.198 17.104C87.526 17.528 86.99 18.148 86.59 18.964C86.198 19.772 86.002 20.748 86.002 21.892L85.594 19.336H86.074C86.234 18.4 86.534 17.608 86.974 16.96C87.422 16.304 87.99 15.804 88.678 15.46C89.366 15.116 90.154 14.944 91.042 14.944C92.434 14.944 93.458 15.344 94.114 16.144C94.77 16.944 95.098 18.068 95.098 19.516V26.512H97.546V28H91.114V26.512H93.37ZM105.522 28.228C104.194 28.228 103.03 27.948 102.03 27.388C101.03 26.82 100.25 26.044 99.6897 25.06C99.1297 24.076 98.8497 22.94 98.8497 21.652C98.8497 20.356 99.1297 19.208 99.6897 18.208C100.25 17.2 101.03 16.412 102.03 15.844C103.03 15.276 104.194 14.992 105.522 14.992C106.85 14.992 108.014 15.276 109.014 15.844C110.014 16.412 110.794 17.2 111.354 18.208C111.914 19.208 112.194 20.356 112.194 21.652C112.194 22.94 111.914 24.076 111.354 25.06C110.794 26.044 110.014 26.82 109.014 27.388C108.014 27.948 106.85 28.228 105.522 28.228ZM105.522 26.632C106.482 26.632 107.326 26.424 108.054 26.008C108.79 25.592 109.362 25.012 109.77 24.268C110.186 23.516 110.394 22.644 110.394 21.652C110.394 20.652 110.186 19.772 109.77 19.012C109.362 18.252 108.79 17.66 108.054 17.236C107.326 16.804 106.482 16.588 105.522 16.588C104.562 16.588 103.714 16.804 102.978 17.236C102.25 17.66 101.678 18.252 101.262 19.012C100.854 19.772 100.65 20.652 100.65 21.652C100.65 22.644 100.854 23.516 101.262 24.268C101.678 25.012 102.25 25.592 102.978 26.008C103.714 26.424 104.562 26.632 105.522 26.632ZM121.003 28.228C119.675 28.228 118.511 27.948 117.511 27.388C116.511 26.82 115.731 26.044 115.171 25.06C114.611 24.076 114.331 22.94 114.331 21.652C114.331 20.356 114.611 19.208 115.171 18.208C115.731 17.2 116.511 16.412 117.511 15.844C118.511 15.276 119.675 14.992 121.003 14.992C122.331 14.992 123.495 15.276 124.495 15.844C125.495 16.412 126.275 17.2 126.835 18.208C127.395 19.208 127.675 20.356 127.675 21.652C127.675 22.94 127.395 24.076 126.835 25.06C126.275 26.044 125.495 26.82 124.495 27.388C123.495 27.948 122.331 28.228 121.003 28.228ZM121.003 26.632C121.963 26.632 122.807 26.424 123.535 26.008C124.271 25.592 124.843 25.012 125.251 24.268C125.667 23.516 125.875 22.644 125.875 21.652C125.875 20.652 125.667 19.772 125.251 19.012C124.843 18.252 124.271 17.66 123.535 17.236C122.807 16.804 121.963 16.588 121.003 16.588C120.043 16.588 119.195 16.804 118.459 17.236C117.731 17.66 117.159 18.252 116.743 19.012C116.335 19.772 116.131 20.652 116.131 21.652C116.131 22.644 116.335 23.516 116.743 24.268C117.159 25.012 117.731 25.592 118.459 26.008C119.195 26.424 120.043 26.632 121.003 26.632ZM140.924 28V23.224L140.996 22.288V20.764L140.924 19.084V10.528H137.48V9.04H142.652V26.512H145.1V28H140.924ZM136.112 14.98C137.168 14.98 138.112 15.212 138.944 15.676C139.784 16.14 140.476 16.804 141.02 17.668C141.564 18.524 141.924 19.552 142.1 20.752L140.996 21.58C140.996 20.596 140.804 19.724 140.42 18.964C140.044 18.204 139.504 17.612 138.8 17.188C138.096 16.756 137.26 16.54 136.292 16.54C135.34 16.54 134.512 16.756 133.808 17.188C133.104 17.62 132.56 18.216 132.176 18.976C131.8 19.736 131.612 20.616 131.612 21.616C131.612 22.608 131.808 23.484 132.2 24.244C132.592 25.004 133.14 25.604 133.844 26.044C134.556 26.476 135.372 26.692 136.292 26.692C137.252 26.692 138.08 26.476 138.776 26.044C139.48 25.604 140.024 25 140.408 24.232C140.8 23.464 140.996 22.58 140.996 21.58L141.26 24.304H140.852C140.708 25.008 140.428 25.66 140.012 26.26C139.596 26.852 139.048 27.332 138.368 27.7C137.688 28.06 136.872 28.24 135.92 28.24C135.032 28.24 134.216 28.08 133.472 27.76C132.728 27.432 132.084 26.972 131.54 26.38C130.996 25.78 130.572 25.076 130.268 24.268C129.972 23.46 129.824 22.576 129.824 21.616C129.824 20.32 130.084 19.172 130.604 18.172C131.124 17.172 131.852 16.392 132.788 15.832C133.732 15.264 134.84 14.98 136.112 14.98ZM151.054 26.512H153.514V28H146.734V26.512H149.326V16.708H146.734V15.22H151.054V26.512ZM149.002 9.832H151.21V12.124H149.002V9.832ZM161.524 28.228C160.204 28.228 159.06 27.948 158.092 27.388C157.124 26.828 156.376 26.056 155.848 25.072C155.32 24.08 155.056 22.94 155.056 21.652C155.056 20.348 155.32 19.196 155.848 18.196C156.384 17.196 157.128 16.412 158.08 15.844C159.04 15.276 160.156 14.992 161.428 14.992C162.708 14.992 163.816 15.272 164.752 15.832C165.688 16.392 166.408 17.168 166.912 18.16C167.416 19.152 167.668 20.296 167.668 21.592C167.668 21.744 167.664 21.864 167.656 21.952C167.656 22.04 167.648 22.116 167.632 22.18H165.928C165.936 22.084 165.94 21.98 165.94 21.868C165.948 21.748 165.952 21.612 165.952 21.46C165.952 20.508 165.768 19.664 165.4 18.928C165.04 18.184 164.524 17.6 163.852 17.176C163.18 16.752 162.372 16.54 161.428 16.54C160.508 16.54 159.7 16.76 159.004 17.2C158.308 17.632 157.768 18.232 157.384 19C157 19.76 156.808 20.644 156.808 21.652C156.808 22.628 156.996 23.492 157.372 24.244C157.756 24.988 158.3 25.572 159.004 25.996C159.708 26.42 160.544 26.632 161.512 26.632C162.52 26.632 163.392 26.396 164.128 25.924C164.872 25.444 165.424 24.792 165.784 23.968L167.416 24.58C166.944 25.708 166.188 26.6 165.148 27.256C164.116 27.904 162.908 28.228 161.524 28.228ZM156.148 22.18V20.848H167.116L167.62 22.18H156.148Z" fill="black"/>
<path d="M1 6.35211L6 1V39L1 33.6479V6.35211Z" fill="white"/>
<path d="M6 1L1 6.35211V33.6479L6 39" stroke="black" stroke-linecap="round"/>
<path d="M179 33.6479L174 39L174 1L179 6.35211L179 33.6479Z" fill="white"/>
<path d="M174 39L179 33.6479L179 6.35211L174 1" stroke="black" stroke-linecap="round"/>
</svg>
