<svg width="256" height="40" viewBox="0 0 256 40" fill="none" xmlns="http://www.w3.org/2000/svg">
<path d="M6 0.900024H250V38.9H6V0.900024Z" fill="white"/>
<path d="M6 1.40002H250V0.400024H6V1.40002ZM250 38.4H6V39.4H250V38.4Z" fill="black"/>
<path d="M18.5428 28.128C17.6868 28.128 16.9628 28 16.3708 27.744C15.7868 27.488 15.3228 27.148 14.9788 26.724C14.6348 26.292 14.4108 25.812 14.3068 25.284H13.8748L14.2228 23.868C14.3748 24.708 14.7908 25.392 15.4708 25.92C16.1588 26.448 17.0508 26.712 18.1468 26.712C19.0828 26.712 19.8068 26.524 20.3188 26.148C20.8388 25.764 21.0988 25.208 21.0988 24.48C21.0988 23.816 20.8428 23.3 20.3308 22.932C19.8188 22.564 18.9228 22.284 17.6428 22.092C15.8108 21.804 14.5068 21.352 13.7308 20.736C12.9548 20.112 12.5668 19.292 12.5668 18.276C12.5668 17.252 12.9228 16.432 13.6348 15.816C14.3468 15.2 15.3388 14.892 16.6108 14.892C17.4508 14.892 18.1428 15.02 18.6868 15.276C19.2388 15.532 19.6628 15.876 19.9588 16.308C20.2548 16.732 20.4468 17.2 20.5348 17.712H20.9668L20.6188 19.068C20.4748 18.252 20.0828 17.588 19.4428 17.076C18.8028 16.556 17.9668 16.296 16.9348 16.296C16.1028 16.296 15.4508 16.472 14.9788 16.824C14.5148 17.176 14.2828 17.644 14.2828 18.228C14.2828 18.844 14.5748 19.328 15.1588 19.68C15.7428 20.024 16.6628 20.296 17.9188 20.496C19.6948 20.776 20.9548 21.236 21.6988 21.876C22.4428 22.516 22.8148 23.38 22.8148 24.468C22.8148 25.612 22.4468 26.508 21.7108 27.156C20.9828 27.804 19.9268 28.128 18.5428 28.128ZM12.4948 27.9V23.868H14.2228V27.9H12.4948ZM20.6188 19.068V15.12H22.3468V19.068H20.6188ZM29.3038 26.412H31.7638V27.9H24.9838V26.412H27.5758V16.608H24.9838V15.12H29.3038V26.412ZM27.2518 9.73202H29.4598V12.024H27.2518V9.73202ZM37.4038 26.412H40.0318V27.9H33.0478V26.412H35.6758V10.428H33.0478V8.94002H37.4038V26.412ZM48.6616 15.12H54.3256V16.608H52.8856L48.1816 27.9H46.3096L41.4496 16.608H40.0216V15.12H45.8176V16.608H43.3216L48.0376 27.9L46.4176 26.088H48.0616L46.6576 27.9L51.1576 16.608H48.6616V15.12ZM61.4071 28.128C60.0871 28.128 58.9431 27.848 57.9751 27.288C57.0071 26.728 56.2591 25.956 55.7311 24.972C55.2031 23.98 54.9391 22.84 54.9391 21.552C54.9391 20.248 55.2031 19.096 55.7311 18.096C56.2671 17.096 57.0111 16.312 57.9631 15.744C58.9231 15.176 60.0391 14.892 61.3111 14.892C62.5911 14.892 63.6991 15.172 64.6351 15.732C65.5711 16.292 66.2911 17.068 66.7951 18.06C67.2991 19.052 67.5511 20.196 67.5511 21.492C67.5511 21.644 67.5471 21.764 67.5391 21.852C67.5391 21.94 67.5311 22.016 67.5151 22.08H65.8111C65.8191 21.984 65.8231 21.88 65.8231 21.768C65.8311 21.648 65.8351 21.512 65.8351 21.36C65.8351 20.408 65.6511 19.564 65.2831 18.828C64.9231 18.084 64.4071 17.5 63.7351 17.076C63.0631 16.652 62.2551 16.44 61.3111 16.44C60.3911 16.44 59.5831 16.66 58.8871 17.1C58.1911 17.532 57.6511 18.132 57.2671 18.9C56.8831 19.66 56.6911 20.544 56.6911 21.552C56.6911 22.528 56.8791 23.392 57.2551 24.144C57.6391 24.888 58.1831 25.472 58.8871 25.896C59.5911 26.32 60.4271 26.532 61.3951 26.532C62.4031 26.532 63.2751 26.296 64.0111 25.824C64.7551 25.344 65.3071 24.692 65.6671 23.868L67.2991 24.48C66.8271 25.608 66.0711 26.5 65.0311 27.156C63.9991 27.804 62.7911 28.128 61.4071 28.128ZM56.0311 22.08V20.748H66.9991L67.5031 22.08H56.0311ZM73.8106 26.412H76.3066V27.9H69.4546V26.412H72.0826V16.608H69.4546V15.12H73.8106V26.412ZM78.7186 16.956C78.5746 16.916 78.4186 16.884 78.2506 16.86C78.0906 16.836 77.9146 16.824 77.7226 16.824C76.5386 16.824 75.5906 17.268 74.8786 18.156C74.1666 19.036 73.8106 20.26 73.8106 21.828L73.4026 19.032H73.8946C74.0066 18.184 74.2386 17.456 74.5906 16.848C74.9426 16.232 75.3986 15.76 75.9586 15.432C76.5266 15.096 77.1906 14.928 77.9506 14.928C78.0946 14.928 78.2226 14.936 78.3346 14.952C78.4546 14.96 78.5826 14.976 78.7186 15V16.956ZM90.5928 26.412H93.0888V27.9H86.2368V26.412H88.8648V16.608H86.2368V15.12H90.5928V26.412ZM95.5008 16.956C95.3568 16.916 95.2008 16.884 95.0328 16.86C94.8728 16.836 94.6968 16.824 94.5048 16.824C93.3208 16.824 92.3728 17.268 91.6608 18.156C90.9488 19.036 90.5928 20.26 90.5928 21.828L90.1848 19.032H90.6768C90.7888 18.184 91.0208 17.456 91.3728 16.848C91.7248 16.232 92.1808 15.76 92.7408 15.432C93.3088 15.096 93.9728 14.928 94.7328 14.928C94.8768 14.928 95.0048 14.936 95.1168 14.952C95.2368 14.96 95.3648 14.976 95.5008 15V16.956ZM101.155 26.412H103.615V27.9H96.8347V26.412H99.4267V16.608H96.8347V15.12H101.155V26.412ZM99.1027 9.73202H101.311V12.024H99.1027V9.73202ZM109.32 26.412H111.6V27.9H104.964V26.412H107.592V16.608H104.964V15.12H109.32V26.412ZM116.688 26.412V19.728C116.688 18.68 116.452 17.856 115.98 17.256C115.508 16.656 114.764 16.356 113.748 16.356C112.924 16.356 112.176 16.56 111.504 16.968C110.832 17.376 110.3 17.968 109.908 18.744C109.516 19.52 109.32 20.46 109.32 21.564L108.924 19.008H109.404C109.556 18.136 109.848 17.396 110.28 16.788C110.712 16.172 111.264 15.704 111.936 15.384C112.616 15.056 113.396 14.892 114.276 14.892C115.668 14.892 116.704 15.296 117.384 16.104C118.072 16.904 118.416 18.036 118.416 19.5V26.412H120.876V27.9H114.444V26.412H116.688ZM128.337 33.204C127.217 33.204 126.201 33.096 125.289 32.88C124.385 32.672 123.665 32.34 123.129 31.884C122.593 31.428 122.325 30.824 122.325 30.072C122.325 29.32 122.593 28.748 123.129 28.356C123.673 27.972 124.373 27.72 125.229 27.6V27.396L127.365 27.6C126.477 27.6 125.781 27.704 125.277 27.912C124.773 28.128 124.417 28.4 124.209 28.728C124.001 29.064 123.897 29.408 123.897 29.76C123.897 30.304 124.097 30.728 124.497 31.032C124.897 31.336 125.433 31.552 126.105 31.68C126.785 31.808 127.545 31.872 128.385 31.872C130.073 31.872 131.305 31.644 132.081 31.188C132.865 30.74 133.257 30.112 133.257 29.304C133.257 28.168 132.521 27.6 131.049 27.6H126.153C125.193 27.6 124.437 27.428 123.885 27.084C123.341 26.732 123.069 26.228 123.069 25.572C123.069 24.948 123.317 24.472 123.813 24.144C124.309 23.808 125.017 23.604 125.937 23.532V23.172L128.121 23.796H126.813C126.125 23.796 125.601 23.892 125.241 24.084C124.881 24.268 124.701 24.552 124.701 24.936C124.701 25.296 124.865 25.556 125.193 25.716C125.529 25.868 126.033 25.944 126.705 25.944H131.001C131.825 25.944 132.525 26.08 133.101 26.352C133.685 26.616 134.125 26.996 134.421 27.492C134.725 27.988 134.877 28.58 134.877 29.268C134.877 30.004 134.669 30.668 134.253 31.26C133.837 31.86 133.149 32.332 132.189 32.676C131.237 33.028 129.953 33.204 128.337 33.204ZM128.121 23.796C127.105 23.796 126.201 23.612 125.409 23.244C124.617 22.876 123.993 22.36 123.537 21.696C123.081 21.032 122.853 20.252 122.853 19.356C122.853 18.46 123.077 17.68 123.525 17.016C123.981 16.344 124.601 15.824 125.385 15.456C126.177 15.08 127.089 14.892 128.121 14.892C129.169 14.892 130.093 15.088 130.893 15.48C131.701 15.872 132.317 16.416 132.741 17.112C132.949 17.432 133.101 17.78 133.197 18.156C133.301 18.524 133.353 18.924 133.353 19.356C133.353 20.252 133.129 21.032 132.681 21.696C132.233 22.36 131.613 22.876 130.821 23.244C130.037 23.612 129.137 23.796 128.121 23.796ZM128.121 22.38C128.801 22.38 129.405 22.256 129.933 22.008C130.469 21.76 130.889 21.408 131.193 20.952C131.505 20.496 131.661 19.964 131.661 19.356C131.661 18.748 131.505 18.216 131.193 17.76C130.889 17.296 130.469 16.94 129.933 16.692C129.405 16.436 128.801 16.308 128.121 16.308C127.425 16.308 126.809 16.436 126.273 16.692C125.737 16.94 125.313 17.296 125.001 17.76C124.697 18.216 124.545 18.748 124.545 19.356C124.545 19.964 124.697 20.496 125.001 20.952C125.313 21.408 125.737 21.76 126.273 22.008C126.817 22.256 127.433 22.38 128.121 22.38ZM133.353 19.356L132.753 17.952L132.225 17.088L132.705 16.896C132.681 16.816 132.661 16.736 132.645 16.656C132.637 16.568 132.633 16.476 132.633 16.38C132.633 16.044 132.713 15.74 132.873 15.468C133.033 15.196 133.265 14.98 133.569 14.82C133.873 14.66 134.245 14.58 134.685 14.58C134.797 14.58 134.897 14.584 134.985 14.592C135.081 14.6 135.173 14.616 135.261 14.64V16.308C135.109 16.284 134.969 16.268 134.841 16.26C134.713 16.244 134.585 16.236 134.457 16.236C134.121 16.236 133.849 16.284 133.641 16.38C133.441 16.476 133.297 16.6 133.209 16.752C133.121 16.896 133.077 17.056 133.077 17.232C133.077 17.4 133.101 17.584 133.149 17.784C133.197 17.976 133.241 18.2 133.281 18.456C133.329 18.712 133.353 19.012 133.353 19.356ZM150.122 28.128C148.802 28.128 147.658 27.848 146.69 27.288C145.722 26.728 144.974 25.956 144.446 24.972C143.918 23.98 143.654 22.84 143.654 21.552C143.654 20.248 143.918 19.096 144.446 18.096C144.982 17.096 145.726 16.312 146.678 15.744C147.638 15.176 148.754 14.892 150.026 14.892C151.306 14.892 152.414 15.172 153.35 15.732C154.286 16.292 155.006 17.068 155.51 18.06C156.014 19.052 156.266 20.196 156.266 21.492C156.266 21.644 156.262 21.764 156.254 21.852C156.254 21.94 156.246 22.016 156.23 22.08H154.526C154.534 21.984 154.538 21.88 154.538 21.768C154.546 21.648 154.55 21.512 154.55 21.36C154.55 20.408 154.366 19.564 153.998 18.828C153.638 18.084 153.122 17.5 152.45 17.076C151.778 16.652 150.97 16.44 150.026 16.44C149.106 16.44 148.298 16.66 147.602 17.1C146.906 17.532 146.366 18.132 145.982 18.9C145.598 19.66 145.406 20.544 145.406 21.552C145.406 22.528 145.594 23.392 145.97 24.144C146.354 24.888 146.898 25.472 147.602 25.896C148.306 26.32 149.142 26.532 150.11 26.532C151.118 26.532 151.99 26.296 152.726 25.824C153.47 25.344 154.022 24.692 154.382 23.868L156.014 24.48C155.542 25.608 154.786 26.5 153.746 27.156C152.714 27.804 151.506 28.128 150.122 28.128ZM144.746 22.08V20.748H155.714L156.218 22.08H144.746ZM168.549 27.9C168.221 27.9 167.969 27.796 167.793 27.588C167.625 27.38 167.541 27.088 167.541 26.712V22.872L167.697 22.476L167.613 21.024L167.541 20.268V19.296C167.541 18.64 167.405 18.104 167.133 17.688C166.869 17.272 166.485 16.964 165.981 16.764C165.477 16.564 164.869 16.464 164.157 16.464C163.093 16.464 162.269 16.676 161.685 17.1C161.109 17.516 160.725 18.144 160.533 18.984L158.877 18.636C159.037 17.796 159.337 17.1 159.777 16.548C160.217 15.988 160.801 15.572 161.529 15.3C162.265 15.02 163.161 14.88 164.217 14.88C165.321 14.88 166.245 15.036 166.989 15.348C167.741 15.652 168.309 16.12 168.693 16.752C169.077 17.384 169.269 18.2 169.269 19.2V26.412H171.153V27.9H168.549ZM162.525 28.068C161.197 28.068 160.189 27.776 159.501 27.192C158.813 26.6 158.469 25.732 158.469 24.588C158.469 23.532 158.773 22.728 159.381 22.176C159.989 21.616 160.965 21.196 162.309 20.916L168.057 19.692V20.928L162.597 22.164C161.813 22.348 161.225 22.62 160.833 22.98C160.449 23.332 160.257 23.832 160.257 24.48C160.257 25.184 160.473 25.712 160.905 26.064C161.337 26.408 161.969 26.58 162.801 26.58C163.721 26.58 164.545 26.368 165.273 25.944C166.001 25.52 166.573 24.896 166.989 24.072C167.405 23.248 167.613 22.232 167.613 21.024L168.069 23.856H167.457C167.257 25.192 166.737 26.228 165.897 26.964C165.065 27.7 163.941 28.068 162.525 28.068ZM176.998 26.412H179.494V27.9H172.642V26.412H175.27V16.608H172.642V15.12H176.998V26.412ZM181.906 16.956C181.762 16.916 181.606 16.884 181.438 16.86C181.278 16.836 181.102 16.824 180.91 16.824C179.726 16.824 178.778 17.268 178.066 18.156C177.354 19.036 176.998 20.26 176.998 21.828L176.59 19.032H177.082C177.194 18.184 177.426 17.456 177.778 16.848C178.13 16.232 178.586 15.76 179.146 15.432C179.714 15.096 180.378 14.928 181.138 14.928C181.282 14.928 181.41 14.936 181.522 14.952C181.642 14.96 181.77 14.976 181.906 15V16.956ZM187.44 26.412H189.936V27.9H183.084V26.412H185.712V16.608H183.084V15.12H187.44V26.412ZM192.348 16.956C192.204 16.916 192.048 16.884 191.88 16.86C191.72 16.836 191.544 16.824 191.352 16.824C190.168 16.824 189.22 17.268 188.508 18.156C187.796 19.036 187.44 20.26 187.44 21.828L187.032 19.032H187.524C187.636 18.184 187.868 17.456 188.22 16.848C188.572 16.232 189.028 15.76 189.588 15.432C190.156 15.096 190.82 14.928 191.58 14.928C191.724 14.928 191.852 14.936 191.964 14.952C192.084 14.96 192.212 14.976 192.348 15V16.956ZM198.002 26.412H200.462V27.9H193.682V26.412H196.274V16.608H193.682V15.12H198.002V26.412ZM195.95 9.73202H198.158V12.024H195.95V9.73202ZM206.168 26.412H208.448V27.9H201.812V26.412H204.44V16.608H201.812V15.12H206.168V26.412ZM213.536 26.412V19.728C213.536 18.68 213.3 17.856 212.828 17.256C212.356 16.656 211.612 16.356 210.596 16.356C209.772 16.356 209.024 16.56 208.352 16.968C207.68 17.376 207.148 17.968 206.756 18.744C206.364 19.52 206.168 20.46 206.168 21.564L205.772 19.008H206.252C206.404 18.136 206.696 17.396 207.128 16.788C207.56 16.172 208.112 15.704 208.784 15.384C209.464 15.056 210.244 14.892 211.124 14.892C212.516 14.892 213.552 15.296 214.232 16.104C214.92 16.904 215.264 18.036 215.264 19.5V26.412H217.724V27.9H211.292V26.412H213.536ZM225.185 33.204C224.065 33.204 223.049 33.096 222.137 32.88C221.233 32.672 220.513 32.34 219.977 31.884C219.441 31.428 219.173 30.824 219.173 30.072C219.173 29.32 219.441 28.748 219.977 28.356C220.521 27.972 221.221 27.72 222.077 27.6V27.396L224.213 27.6C223.325 27.6 222.629 27.704 222.125 27.912C221.621 28.128 221.265 28.4 221.057 28.728C220.849 29.064 220.745 29.408 220.745 29.76C220.745 30.304 220.945 30.728 221.345 31.032C221.745 31.336 222.281 31.552 222.953 31.68C223.633 31.808 224.393 31.872 225.233 31.872C226.921 31.872 228.153 31.644 228.929 31.188C229.713 30.74 230.105 30.112 230.105 29.304C230.105 28.168 229.369 27.6 227.897 27.6H223.001C222.041 27.6 221.285 27.428 220.733 27.084C220.189 26.732 219.917 26.228 219.917 25.572C219.917 24.948 220.165 24.472 220.661 24.144C221.157 23.808 221.865 23.604 222.785 23.532V23.172L224.969 23.796H223.661C222.973 23.796 222.449 23.892 222.089 24.084C221.729 24.268 221.549 24.552 221.549 24.936C221.549 25.296 221.713 25.556 222.041 25.716C222.377 25.868 222.881 25.944 223.553 25.944H227.849C228.673 25.944 229.373 26.08 229.949 26.352C230.533 26.616 230.973 26.996 231.269 27.492C231.573 27.988 231.725 28.58 231.725 29.268C231.725 30.004 231.517 30.668 231.101 31.26C230.685 31.86 229.997 32.332 229.037 32.676C228.085 33.028 226.801 33.204 225.185 33.204ZM224.969 23.796C223.953 23.796 223.049 23.612 222.257 23.244C221.465 22.876 220.841 22.36 220.385 21.696C219.929 21.032 219.701 20.252 219.701 19.356C219.701 18.46 219.925 17.68 220.373 17.016C220.829 16.344 221.449 15.824 222.233 15.456C223.025 15.08 223.937 14.892 224.969 14.892C226.017 14.892 226.941 15.088 227.741 15.48C228.549 15.872 229.165 16.416 229.589 17.112C229.797 17.432 229.949 17.78 230.045 18.156C230.149 18.524 230.201 18.924 230.201 19.356C230.201 20.252 229.977 21.032 229.529 21.696C229.081 22.36 228.461 22.876 227.669 23.244C226.885 23.612 225.985 23.796 224.969 23.796ZM224.969 22.38C225.649 22.38 226.253 22.256 226.781 22.008C227.317 21.76 227.737 21.408 228.041 20.952C228.353 20.496 228.509 19.964 228.509 19.356C228.509 18.748 228.353 18.216 228.041 17.76C227.737 17.296 227.317 16.94 226.781 16.692C226.253 16.436 225.649 16.308 224.969 16.308C224.273 16.308 223.657 16.436 223.121 16.692C222.585 16.94 222.161 17.296 221.849 17.76C221.545 18.216 221.393 18.748 221.393 19.356C221.393 19.964 221.545 20.496 221.849 20.952C222.161 21.408 222.585 21.76 223.121 22.008C223.665 22.256 224.281 22.38 224.969 22.38ZM230.201 19.356L229.601 17.952L229.073 17.088L229.553 16.896C229.529 16.816 229.509 16.736 229.493 16.656C229.485 16.568 229.481 16.476 229.481 16.38C229.481 16.044 229.561 15.74 229.721 15.468C229.881 15.196 230.113 14.98 230.417 14.82C230.721 14.66 231.093 14.58 231.533 14.58C231.645 14.58 231.745 14.584 231.833 14.592C231.929 14.6 232.021 14.616 232.109 14.64V16.308C231.957 16.284 231.817 16.268 231.689 16.26C231.561 16.244 231.433 16.236 231.305 16.236C230.969 16.236 230.697 16.284 230.489 16.38C230.289 16.476 230.145 16.6 230.057 16.752C229.969 16.896 229.925 17.056 229.925 17.232C229.925 17.4 229.949 17.584 229.997 17.784C230.045 17.976 230.089 18.2 230.129 18.456C230.177 18.712 230.201 19.012 230.201 19.356ZM239.86 28.128C239.004 28.128 238.28 28 237.688 27.744C237.104 27.488 236.64 27.148 236.296 26.724C235.952 26.292 235.728 25.812 235.624 25.284H235.192L235.54 23.868C235.692 24.708 236.108 25.392 236.788 25.92C237.476 26.448 238.368 26.712 239.464 26.712C240.4 26.712 241.124 26.524 241.636 26.148C242.156 25.764 242.416 25.208 242.416 24.48C242.416 23.816 242.16 23.3 241.648 22.932C241.136 22.564 240.24 22.284 238.96 22.092C237.128 21.804 235.824 21.352 235.048 20.736C234.272 20.112 233.884 19.292 233.884 18.276C233.884 17.252 234.24 16.432 234.952 15.816C235.664 15.2 236.656 14.892 237.928 14.892C238.768 14.892 239.46 15.02 240.004 15.276C240.556 15.532 240.98 15.876 241.276 16.308C241.572 16.732 241.764 17.2 241.852 17.712H242.284L241.936 19.068C241.792 18.252 241.4 17.588 240.76 17.076C240.12 16.556 239.284 16.296 238.252 16.296C237.42 16.296 236.768 16.472 236.296 16.824C235.832 17.176 235.6 17.644 235.6 18.228C235.6 18.844 235.892 19.328 236.476 19.68C237.06 20.024 237.98 20.296 239.236 20.496C241.012 20.776 242.272 21.236 243.016 21.876C243.76 22.516 244.132 23.38 244.132 24.468C244.132 25.612 243.764 26.508 243.028 27.156C242.3 27.804 241.244 28.128 239.86 28.128ZM233.812 27.9V23.868H235.54V27.9H233.812ZM241.936 19.068V15.12H243.664V19.068H241.936Z" fill="black"/>
<path d="M1 6.25214L6 0.900024V38.9L1 33.5479V6.25214Z" fill="white"/>
<path d="M6 0.900024L1 6.25214V33.5479L6 38.9" stroke="black" stroke-linecap="round"/>
<path d="M255 33.5479L250 38.9L250 0.900024L255 6.25214L255 33.5479Z" fill="white"/>
<path d="M250 38.9L255 33.5479L255 6.25214L250 0.900024" stroke="black" stroke-linecap="round"/>
</svg>
