<svg width="98" height="40" viewBox="0 0 98 40" fill="none" xmlns="http://www.w3.org/2000/svg">
<path d="M6 1H92V39H6V1Z" fill="white"/>
<path d="M6 1.5H92V0.5H6V1.5ZM92 38.5H6V39.5H92V38.5Z" fill="black"/>
<path d="M22.7206 28C22.3926 28 22.1406 27.896 21.9646 27.688C21.7966 27.48 21.7126 27.188 21.7126 26.812V22.972L21.8686 22.576L21.7846 21.124L21.7126 20.368V19.396C21.7126 18.74 21.5766 18.204 21.3046 17.788C21.0406 17.372 20.6566 17.064 20.1526 16.864C19.6486 16.664 19.0406 16.564 18.3286 16.564C17.2646 16.564 16.4406 16.776 15.8566 17.2C15.2806 17.616 14.8966 18.244 14.7046 19.084L13.0486 18.736C13.2086 17.896 13.5086 17.2 13.9486 16.648C14.3886 16.088 14.9726 15.672 15.7006 15.4C16.4366 15.12 17.3326 14.98 18.3886 14.98C19.4926 14.98 20.4166 15.136 21.1606 15.448C21.9126 15.752 22.4806 16.22 22.8646 16.852C23.2486 17.484 23.4406 18.3 23.4406 19.3V26.512H25.3246V28H22.7206ZM16.6966 28.168C15.3686 28.168 14.3606 27.876 13.6726 27.292C12.9846 26.7 12.6406 25.832 12.6406 24.688C12.6406 23.632 12.9446 22.828 13.5526 22.276C14.1606 21.716 15.1366 21.296 16.4806 21.016L22.2286 19.792V21.028L16.7686 22.264C15.9846 22.448 15.3966 22.72 15.0046 23.08C14.6206 23.432 14.4286 23.932 14.4286 24.58C14.4286 25.284 14.6446 25.812 15.0766 26.164C15.5086 26.508 16.1406 26.68 16.9726 26.68C17.8926 26.68 18.7166 26.468 19.4446 26.044C20.1726 25.62 20.7446 24.996 21.1606 24.172C21.5766 23.348 21.7846 22.332 21.7846 21.124L22.2406 23.956H21.6286C21.4286 25.292 20.9086 26.328 20.0686 27.064C19.2366 27.8 18.1126 28.168 16.6966 28.168ZM33.4994 28.228C32.1714 28.228 31.0154 27.948 30.0314 27.388C29.0554 26.828 28.2954 26.056 27.7514 25.072C27.2154 24.08 26.9474 22.94 26.9474 21.652C26.9474 20.676 27.0954 19.784 27.3914 18.976C27.6874 18.16 28.1114 17.456 28.6634 16.864C29.2154 16.264 29.8714 15.804 30.6314 15.484C31.3914 15.156 32.2394 14.992 33.1754 14.992C34.0794 14.992 34.8314 15.14 35.4314 15.436C36.0394 15.724 36.5114 16.124 36.8474 16.636C37.1834 17.14 37.3994 17.72 37.4954 18.376H37.9154L37.5674 20.188C37.4634 19.468 37.2274 18.836 36.8594 18.292C36.4914 17.74 36.0114 17.312 35.4194 17.008C34.8274 16.696 34.1434 16.54 33.3674 16.54C32.4394 16.54 31.6234 16.76 30.9194 17.2C30.2234 17.632 29.6794 18.232 29.2874 19C28.9034 19.76 28.7114 20.644 28.7114 21.652C28.7114 22.628 28.9074 23.492 29.2994 24.244C29.6994 24.988 30.2554 25.572 30.9674 25.996C31.6874 26.42 32.5354 26.632 33.5114 26.632C34.5194 26.632 35.3874 26.412 36.1154 25.972C36.8434 25.524 37.3754 24.924 37.7114 24.172L39.3074 24.88C38.8514 25.912 38.1194 26.728 37.1114 27.328C36.1114 27.928 34.9074 28.228 33.4994 28.228ZM37.5674 20.188V15.22H39.2954V20.188H37.5674ZM44.6834 24.616C44.6834 25.288 44.8114 25.796 45.0674 26.14C45.3234 26.476 45.7154 26.644 46.2434 26.644C46.7634 26.644 47.1554 26.472 47.4194 26.128C47.6834 25.776 47.8154 25.272 47.8154 24.616V23.428H49.3754V24.604C49.3754 25.372 49.2594 26.028 49.0274 26.572C48.8034 27.108 48.4594 27.52 47.9954 27.808C47.5314 28.088 46.9354 28.228 46.2074 28.228C45.4634 28.228 44.8514 28.084 44.3714 27.796C43.8914 27.5 43.5354 27.084 43.3034 26.548C43.0714 26.012 42.9554 25.368 42.9554 24.616L42.9674 16.708H40.6874V15.22H42.9674V11.98H44.6954V15.22H49.2074L49.1954 16.708H44.6954L44.6834 24.616ZM55.5484 26.512H58.0084V28H51.2284V26.512H53.8204V16.708H51.2284V15.22H55.5484V26.512ZM53.4964 9.832H55.7044V12.124H53.4964V9.832ZM66.7144 15.22H72.3784V16.708H70.9384L66.2344 28H64.3624L59.5024 16.708H58.0744V15.22H63.8704V16.708H61.3744L66.0904 28L64.4704 26.188H66.1144L64.7104 28L69.2104 16.708H66.7144V15.22ZM79.4599 28.228C78.1399 28.228 76.9959 27.948 76.0279 27.388C75.0599 26.828 74.3119 26.056 73.7839 25.072C73.2559 24.08 72.9919 22.94 72.9919 21.652C72.9919 20.348 73.2559 19.196 73.7839 18.196C74.3199 17.196 75.0639 16.412 76.0159 15.844C76.9759 15.276 78.0919 14.992 79.3639 14.992C80.6439 14.992 81.7519 15.272 82.6879 15.832C83.6239 16.392 84.3439 17.168 84.8479 18.16C85.3519 19.152 85.6039 20.296 85.6039 21.592C85.6039 21.744 85.5999 21.864 85.5919 21.952C85.5919 22.04 85.5839 22.116 85.5679 22.18H83.8639C83.8719 22.084 83.8759 21.98 83.8759 21.868C83.8839 21.748 83.8879 21.612 83.8879 21.46C83.8879 20.508 83.7039 19.664 83.3359 18.928C82.9759 18.184 82.4599 17.6 81.7879 17.176C81.1159 16.752 80.3079 16.54 79.3639 16.54C78.4439 16.54 77.6359 16.76 76.9399 17.2C76.2439 17.632 75.7039 18.232 75.3199 19C74.9359 19.76 74.7439 20.644 74.7439 21.652C74.7439 22.628 74.9319 23.492 75.3079 24.244C75.6919 24.988 76.2359 25.572 76.9399 25.996C77.6439 26.42 78.4799 26.632 79.4479 26.632C80.4559 26.632 81.3279 26.396 82.0639 25.924C82.8079 25.444 83.3599 24.792 83.7199 23.968L85.3519 24.58C84.8799 25.708 84.1239 26.6 83.0839 27.256C82.0519 27.904 80.8439 28.228 79.4599 28.228ZM74.0839 22.18V20.848H85.0519L85.5559 22.18H74.0839Z" fill="black"/>
<path d="M1 6.35211L6 1V39L1 33.6479V6.35211Z" fill="white"/>
<path d="M6 1L1 6.35211V33.6479L6 39" stroke="black" stroke-linecap="round"/>
<path d="M97 33.6479L92 39L92 1L97 6.35211L97 33.6479Z" fill="white"/>
<path d="M92 39L97 33.6479L97 6.35211L92 1" stroke="black" stroke-linecap="round"/>
</svg>
