<svg width="99" height="40" viewBox="0 0 99 40" fill="none" xmlns="http://www.w3.org/2000/svg">
<path d="M6 1H93V39H6V1Z" fill="white"/>
<path d="M6 1.5H93V0.5H6V1.5ZM93 38.5H6V39.5H93V38.5Z" fill="black"/>
<path d="M13.8107 28.264V10.528H11.2427V9.04H15.5387V19.696L15.4667 21.196V22.792L15.5387 25.12L13.9667 28.264H13.8107ZM20.2787 28.24C19.2067 28.24 18.2467 28.04 17.3987 27.64C16.5587 27.232 15.8627 26.656 15.3107 25.912C14.7667 25.16 14.4027 24.268 14.2187 23.236L15.4667 21.616C15.4667 22.6 15.6547 23.472 16.0307 24.232C16.4067 24.992 16.9467 25.592 17.6507 26.032C18.3547 26.464 19.1907 26.68 20.1587 26.68C21.1427 26.68 21.9827 26.468 22.6787 26.044C23.3827 25.62 23.9187 25.028 24.2867 24.268C24.6627 23.5 24.8507 22.608 24.8507 21.592C24.8507 20.6 24.6507 19.724 24.2507 18.964C23.8587 18.204 23.3107 17.608 22.6067 17.176C21.9027 16.744 21.0867 16.528 20.1587 16.528C19.2067 16.528 18.3787 16.744 17.6747 17.176C16.9707 17.608 16.4267 18.204 16.0427 18.964C15.6587 19.724 15.4667 20.608 15.4667 21.616L15.1907 18.916H15.5987C15.7507 18.212 16.0307 17.564 16.4387 16.972C16.8547 16.372 17.4027 15.892 18.0827 15.532C18.7707 15.164 19.5907 14.98 20.5427 14.98C21.4307 14.98 22.2467 15.144 22.9907 15.472C23.7347 15.792 24.3787 16.252 24.9227 16.852C25.4667 17.444 25.8867 18.148 26.1827 18.964C26.4787 19.772 26.6267 20.66 26.6267 21.628C26.6267 22.916 26.3627 24.06 25.8347 25.06C25.3147 26.052 24.5787 26.832 23.6267 27.4C22.6747 27.96 21.5587 28.24 20.2787 28.24ZM32.9822 26.512H35.4782V28H28.6262V26.512H31.2542V16.708H28.6262V15.22H32.9822V26.512ZM37.8902 17.056C37.7462 17.016 37.5902 16.984 37.4222 16.96C37.2622 16.936 37.0862 16.924 36.8942 16.924C35.7102 16.924 34.7622 17.368 34.0502 18.256C33.3382 19.136 32.9822 20.36 32.9822 21.928L32.5742 19.132H33.0662C33.1782 18.284 33.4102 17.556 33.7622 16.948C34.1142 16.332 34.5702 15.86 35.1302 15.532C35.6982 15.196 36.3622 15.028 37.1222 15.028C37.2662 15.028 37.3942 15.036 37.5062 15.052C37.6262 15.06 37.7542 15.076 37.8902 15.1V17.056ZM43.5441 26.512H46.0041V28H39.2241V26.512H41.8161V16.708H39.2241V15.22H43.5441V26.512ZM41.4921 9.832H43.7001V12.124H41.4921V9.832ZM53.5817 33.304C52.4617 33.304 51.4457 33.196 50.5337 32.98C49.6297 32.772 48.9097 32.44 48.3737 31.984C47.8377 31.528 47.5697 30.924 47.5697 30.172C47.5697 29.42 47.8377 28.848 48.3737 28.456C48.9177 28.072 49.6177 27.82 50.4737 27.7V27.496L52.6097 27.7C51.7217 27.7 51.0257 27.804 50.5217 28.012C50.0177 28.228 49.6617 28.5 49.4537 28.828C49.2457 29.164 49.1417 29.508 49.1417 29.86C49.1417 30.404 49.3417 30.828 49.7417 31.132C50.1417 31.436 50.6777 31.652 51.3497 31.78C52.0297 31.908 52.7897 31.972 53.6297 31.972C55.3177 31.972 56.5497 31.744 57.3257 31.288C58.1097 30.84 58.5017 30.212 58.5017 29.404C58.5017 28.268 57.7657 27.7 56.2937 27.7H51.3977C50.4377 27.7 49.6817 27.528 49.1297 27.184C48.5857 26.832 48.3137 26.328 48.3137 25.672C48.3137 25.048 48.5617 24.572 49.0577 24.244C49.5537 23.908 50.2617 23.704 51.1817 23.632V23.272L53.3657 23.896H52.0577C51.3697 23.896 50.8457 23.992 50.4857 24.184C50.1257 24.368 49.9457 24.652 49.9457 25.036C49.9457 25.396 50.1097 25.656 50.4377 25.816C50.7737 25.968 51.2777 26.044 51.9497 26.044H56.2457C57.0697 26.044 57.7697 26.18 58.3457 26.452C58.9297 26.716 59.3697 27.096 59.6657 27.592C59.9697 28.088 60.1217 28.68 60.1217 29.368C60.1217 30.104 59.9137 30.768 59.4977 31.36C59.0817 31.96 58.3937 32.432 57.4337 32.776C56.4817 33.128 55.1977 33.304 53.5817 33.304ZM53.3657 23.896C52.3497 23.896 51.4457 23.712 50.6537 23.344C49.8617 22.976 49.2377 22.46 48.7817 21.796C48.3257 21.132 48.0977 20.352 48.0977 19.456C48.0977 18.56 48.3217 17.78 48.7697 17.116C49.2257 16.444 49.8457 15.924 50.6297 15.556C51.4217 15.18 52.3337 14.992 53.3657 14.992C54.4137 14.992 55.3377 15.188 56.1377 15.58C56.9457 15.972 57.5617 16.516 57.9857 17.212C58.1937 17.532 58.3457 17.88 58.4417 18.256C58.5457 18.624 58.5977 19.024 58.5977 19.456C58.5977 20.352 58.3737 21.132 57.9257 21.796C57.4777 22.46 56.8577 22.976 56.0657 23.344C55.2817 23.712 54.3817 23.896 53.3657 23.896ZM53.3657 22.48C54.0457 22.48 54.6497 22.356 55.1777 22.108C55.7137 21.86 56.1337 21.508 56.4377 21.052C56.7497 20.596 56.9057 20.064 56.9057 19.456C56.9057 18.848 56.7497 18.316 56.4377 17.86C56.1337 17.396 55.7137 17.04 55.1777 16.792C54.6497 16.536 54.0457 16.408 53.3657 16.408C52.6697 16.408 52.0537 16.536 51.5177 16.792C50.9817 17.04 50.5577 17.396 50.2457 17.86C49.9417 18.316 49.7897 18.848 49.7897 19.456C49.7897 20.064 49.9417 20.596 50.2457 21.052C50.5577 21.508 50.9817 21.86 51.5177 22.108C52.0617 22.356 52.6777 22.48 53.3657 22.48ZM58.5977 19.456L57.9977 18.052L57.4697 17.188L57.9497 16.996C57.9257 16.916 57.9057 16.836 57.8897 16.756C57.8817 16.668 57.8777 16.576 57.8777 16.48C57.8777 16.144 57.9577 15.84 58.1177 15.568C58.2777 15.296 58.5097 15.08 58.8137 14.92C59.1177 14.76 59.4897 14.68 59.9297 14.68C60.0417 14.68 60.1417 14.684 60.2297 14.692C60.3257 14.7 60.4177 14.716 60.5057 14.74V16.408C60.3537 16.384 60.2137 16.368 60.0857 16.36C59.9577 16.344 59.8297 16.336 59.7017 16.336C59.3657 16.336 59.0937 16.384 58.8857 16.48C58.6857 16.576 58.5417 16.7 58.4537 16.852C58.3657 16.996 58.3217 17.156 58.3217 17.332C58.3217 17.5 58.3457 17.684 58.3937 17.884C58.4417 18.076 58.4857 18.3 58.5257 18.556C58.5737 18.812 58.5977 19.112 58.5977 19.456ZM65.8931 26.512H68.1611V28H61.5971V26.512H64.1651V10.528H61.5971V9.04H65.8931V26.512ZM73.2611 26.512V19.792C73.2611 18.752 73.0251 17.936 72.5531 17.344C72.0891 16.752 71.3571 16.456 70.3571 16.456C69.5171 16.456 68.7611 16.672 68.0891 17.104C67.4171 17.528 66.8811 18.148 66.4811 18.964C66.0891 19.772 65.8931 20.748 65.8931 21.892L65.4851 19.336H65.9651C66.1251 18.4 66.4251 17.608 66.8651 16.96C67.3131 16.304 67.8811 15.804 68.5691 15.46C69.2571 15.116 70.0451 14.944 70.9331 14.944C72.3251 14.944 73.3491 15.344 74.0051 16.144C74.6611 16.944 74.9891 18.068 74.9891 19.516V26.512H77.4371V28H71.0051V26.512H73.2611ZM82.0871 24.616C82.0871 25.288 82.2151 25.796 82.4711 26.14C82.7271 26.476 83.1191 26.644 83.6471 26.644C84.1671 26.644 84.5591 26.472 84.8231 26.128C85.0871 25.776 85.2191 25.272 85.2191 24.616V23.428H86.7791V24.604C86.7791 25.372 86.6631 26.028 86.4311 26.572C86.2071 27.108 85.8631 27.52 85.3991 27.808C84.9351 28.088 84.3391 28.228 83.6111 28.228C82.8671 28.228 82.2551 28.084 81.7751 27.796C81.2951 27.5 80.9391 27.084 80.7071 26.548C80.4751 26.012 80.3591 25.368 80.3591 24.616L80.3711 16.708H78.0911V15.22H80.3711V11.98H82.0991V15.22H86.6111L86.5991 16.708H82.0991L82.0871 24.616Z" fill="black"/>
<path d="M1 6.35211L6 1V39L1 33.6479V6.35211Z" fill="white"/>
<path d="M6 1L1 6.35211V33.6479L6 39" stroke="black" stroke-linecap="round"/>
<path d="M98 33.6479L93 39L93 1L98 6.35211L98 33.6479Z" fill="white"/>
<path d="M93 39L98 33.6479L98 6.35211L93 1" stroke="black" stroke-linecap="round"/>
</svg>
