<svg width="130" height="40" viewBox="0 0 130 40" fill="none" xmlns="http://www.w3.org/2000/svg">
<path d="M6 1H124V39H6V1Z" fill="white"/>
<path d="M6 1.5H124V0.5H6V1.5ZM124 38.5H6V39.5H124V38.5Z" fill="black"/>
<path d="M19.0063 28.228C17.6783 28.228 16.5223 27.948 15.5383 27.388C14.5623 26.828 13.8023 26.056 13.2583 25.072C12.7223 24.08 12.4543 22.94 12.4543 21.652C12.4543 20.676 12.6023 19.784 12.8983 18.976C13.1943 18.16 13.6183 17.456 14.1703 16.864C14.7223 16.264 15.3783 15.804 16.1383 15.484C16.8983 15.156 17.7463 14.992 18.6823 14.992C19.5863 14.992 20.3383 15.14 20.9383 15.436C21.5463 15.724 22.0183 16.124 22.3543 16.636C22.6903 17.14 22.9063 17.72 23.0023 18.376H23.4223L23.0743 20.188C22.9703 19.468 22.7343 18.836 22.3663 18.292C21.9983 17.74 21.5183 17.312 20.9263 17.008C20.3343 16.696 19.6503 16.54 18.8743 16.54C17.9463 16.54 17.1303 16.76 16.4263 17.2C15.7303 17.632 15.1863 18.232 14.7943 19C14.4103 19.76 14.2183 20.644 14.2183 21.652C14.2183 22.628 14.4143 23.492 14.8063 24.244C15.2063 24.988 15.7623 25.572 16.4743 25.996C17.1943 26.42 18.0423 26.632 19.0183 26.632C20.0263 26.632 20.8943 26.412 21.6223 25.972C22.3503 25.524 22.8823 24.924 23.2183 24.172L24.8143 24.88C24.3583 25.912 23.6263 26.728 22.6183 27.328C21.6183 27.928 20.4143 28.228 19.0063 28.228ZM23.0743 20.188V15.22H24.8023V20.188H23.0743ZM37.1503 28C36.8223 28 36.5703 27.896 36.3943 27.688C36.2263 27.48 36.1423 27.188 36.1423 26.812V22.972L36.2983 22.576L36.2143 21.124L36.1423 20.368V19.396C36.1423 18.74 36.0063 18.204 35.7343 17.788C35.4703 17.372 35.0863 17.064 34.5823 16.864C34.0783 16.664 33.4703 16.564 32.7583 16.564C31.6943 16.564 30.8703 16.776 30.2863 17.2C29.7103 17.616 29.3263 18.244 29.1343 19.084L27.4783 18.736C27.6383 17.896 27.9383 17.2 28.3783 16.648C28.8183 16.088 29.4023 15.672 30.1303 15.4C30.8663 15.12 31.7623 14.98 32.8183 14.98C33.9223 14.98 34.8463 15.136 35.5903 15.448C36.3423 15.752 36.9103 16.22 37.2943 16.852C37.6783 17.484 37.8703 18.3 37.8703 19.3V26.512H39.7543V28H37.1503ZM31.1263 28.168C29.7983 28.168 28.7903 27.876 28.1023 27.292C27.4143 26.7 27.0703 25.832 27.0703 24.688C27.0703 23.632 27.3743 22.828 27.9823 22.276C28.5903 21.716 29.5663 21.296 30.9103 21.016L36.6583 19.792V21.028L31.1983 22.264C30.4143 22.448 29.8263 22.72 29.4343 23.08C29.0503 23.432 28.8583 23.932 28.8583 24.58C28.8583 25.284 29.0743 25.812 29.5063 26.164C29.9383 26.508 30.5703 26.68 31.4023 26.68C32.3223 26.68 33.1463 26.468 33.8743 26.044C34.6023 25.62 35.1743 24.996 35.5903 24.172C36.0063 23.348 36.2143 22.332 36.2143 21.124L36.6703 23.956H36.0583C35.8583 25.292 35.3383 26.328 34.4983 27.064C33.6663 27.8 32.5423 28.168 31.1263 28.168ZM51.6628 16.708H49.1908V15.22H53.3908V26.512H55.8868V28H51.6628V16.708ZM44.5228 15.22V23.368C44.5228 24.416 44.7548 25.244 45.2188 25.852C45.6908 26.452 46.4308 26.752 47.4388 26.752C48.2468 26.752 48.9668 26.548 49.5988 26.14C50.2388 25.724 50.7428 25.128 51.1108 24.352C51.4788 23.576 51.6628 22.644 51.6628 21.556L52.0828 24.112H51.5788C51.3628 25.488 50.8268 26.528 49.9708 27.232C49.1228 27.928 48.0788 28.276 46.8388 28.276C45.4628 28.276 44.4428 27.868 43.7788 27.052C43.1228 26.236 42.7948 25.104 42.7948 23.656V16.708H40.4788V15.22H44.5228ZM60.6599 24.616C60.6599 25.288 60.7879 25.796 61.0439 26.14C61.2999 26.476 61.6919 26.644 62.2199 26.644C62.7399 26.644 63.1319 26.472 63.3959 26.128C63.6599 25.776 63.7919 25.272 63.7919 24.616V23.428H65.3519V24.604C65.3519 25.372 65.2359 26.028 65.0039 26.572C64.7799 27.108 64.4359 27.52 63.9719 27.808C63.5079 28.088 62.9119 28.228 62.1839 28.228C61.4399 28.228 60.8279 28.084 60.3479 27.796C59.8679 27.5 59.5119 27.084 59.2799 26.548C59.0479 26.012 58.9319 25.368 58.9319 24.616L58.9439 16.708H56.6639V15.22H58.9439V11.98H60.6719V15.22H65.1839L65.1719 16.708H60.6719L60.6599 24.616ZM71.525 26.512H73.985V28H67.205V26.512H69.797V16.708H67.205V15.22H71.525V26.512ZM69.473 9.832H71.681V12.124H69.473V9.832ZM82.1506 28.228C80.8226 28.228 79.6586 27.948 78.6586 27.388C77.6586 26.82 76.8786 26.044 76.3186 25.06C75.7586 24.076 75.4786 22.94 75.4786 21.652C75.4786 20.356 75.7586 19.208 76.3186 18.208C76.8786 17.2 77.6586 16.412 78.6586 15.844C79.6586 15.276 80.8226 14.992 82.1506 14.992C83.4786 14.992 84.6426 15.276 85.6426 15.844C86.6426 16.412 87.4226 17.2 87.9826 18.208C88.5426 19.208 88.8226 20.356 88.8226 21.652C88.8226 22.94 88.5426 24.076 87.9826 25.06C87.4226 26.044 86.6426 26.82 85.6426 27.388C84.6426 27.948 83.4786 28.228 82.1506 28.228ZM82.1506 26.632C83.1106 26.632 83.9546 26.424 84.6826 26.008C85.4186 25.592 85.9906 25.012 86.3986 24.268C86.8146 23.516 87.0226 22.644 87.0226 21.652C87.0226 20.652 86.8146 19.772 86.3986 19.012C85.9906 18.252 85.4186 17.66 84.6826 17.236C83.9546 16.804 83.1106 16.588 82.1506 16.588C81.1906 16.588 80.3426 16.804 79.6066 17.236C78.8786 17.66 78.3066 18.252 77.8906 19.012C77.4826 19.772 77.2786 20.652 77.2786 21.652C77.2786 22.644 77.4826 23.516 77.8906 24.268C78.3066 25.012 78.8786 25.592 79.6066 26.008C80.3426 26.424 81.1906 26.632 82.1506 26.632ZM101.376 16.708H98.9036V15.22H103.104V26.512H105.6V28H101.376V16.708ZM94.2356 15.22V23.368C94.2356 24.416 94.4676 25.244 94.9316 25.852C95.4036 26.452 96.1436 26.752 97.1516 26.752C97.9596 26.752 98.6796 26.548 99.3116 26.14C99.9516 25.724 100.456 25.128 100.824 24.352C101.192 23.576 101.376 22.644 101.376 21.556L101.796 24.112H101.292C101.076 25.488 100.54 26.528 99.6836 27.232C98.8356 27.928 97.7916 28.276 96.5516 28.276C95.1756 28.276 94.1556 27.868 93.4916 27.052C92.8356 26.236 92.5076 25.104 92.5076 23.656V16.708H90.1916V15.22H94.2356ZM113.313 28.228C112.457 28.228 111.733 28.1 111.141 27.844C110.557 27.588 110.093 27.248 109.749 26.824C109.405 26.392 109.181 25.912 109.077 25.384H108.645L108.993 23.968C109.145 24.808 109.561 25.492 110.241 26.02C110.929 26.548 111.821 26.812 112.917 26.812C113.853 26.812 114.577 26.624 115.089 26.248C115.609 25.864 115.869 25.308 115.869 24.58C115.869 23.916 115.613 23.4 115.101 23.032C114.589 22.664 113.693 22.384 112.413 22.192C110.581 21.904 109.277 21.452 108.501 20.836C107.725 20.212 107.337 19.392 107.337 18.376C107.337 17.352 107.693 16.532 108.405 15.916C109.117 15.3 110.109 14.992 111.381 14.992C112.221 14.992 112.913 15.12 113.457 15.376C114.009 15.632 114.433 15.976 114.729 16.408C115.025 16.832 115.217 17.3 115.305 17.812H115.737L115.389 19.168C115.245 18.352 114.853 17.688 114.213 17.176C113.573 16.656 112.737 16.396 111.705 16.396C110.873 16.396 110.221 16.572 109.749 16.924C109.285 17.276 109.053 17.744 109.053 18.328C109.053 18.944 109.345 19.428 109.929 19.78C110.513 20.124 111.433 20.396 112.689 20.596C114.465 20.876 115.725 21.336 116.469 21.976C117.213 22.616 117.585 23.48 117.585 24.568C117.585 25.712 117.217 26.608 116.481 27.256C115.753 27.904 114.697 28.228 113.313 28.228ZM107.265 28V23.968H108.993V28H107.265ZM115.389 19.168V15.22H117.117V19.168H115.389Z" fill="black"/>
<path d="M1 6.35211L6 1V39L1 33.6479V6.35211Z" fill="white"/>
<path d="M6 1L1 6.35211V33.6479L6 39" stroke="black" stroke-linecap="round"/>
<path d="M129 33.6479L124 39L124 1L129 6.35211L129 33.6479Z" fill="white"/>
<path d="M124 39L129 33.6479L129 6.35211L124 1" stroke="black" stroke-linecap="round"/>
</svg>
