<svg width="53" height="47" viewBox="0 0 53 47" fill="none" xmlns="http://www.w3.org/2000/svg">
<path d="M3.97277 43.5625C3.83531 43.4113 3.6566 43.2738 3.46415 43.1638C3.25795 43.0538 3.038 42.9439 2.77682 42.8339L2.2407 42.614C2.10323 42.559 1.97951 42.504 1.85579 42.4353C1.73207 42.3665 1.6221 42.2978 1.53962 42.2153C1.45714 42.1328 1.37466 42.0366 1.31968 41.9404C1.26469 41.8304 1.2372 41.7204 1.2372 41.583C1.2372 41.253 1.34717 41.0056 1.56712 40.8544C1.78706 40.6894 2.10323 40.6069 2.50189 40.6069C2.79056 40.6069 3.05175 40.6344 3.28544 40.6894C3.50539 40.7444 3.71159 40.7994 3.8903 40.8681C4.00027 40.607 4.069 40.332 4.11024 40.0708C3.8903 39.9884 3.64286 39.9196 3.36792 39.8784C3.09299 39.8234 2.79056 39.7959 2.48814 39.7959C1.75957 39.7959 1.19596 39.9609 0.797304 40.2908C0.398652 40.6207 0.192453 41.0881 0.192453 41.6654C0.192453 41.9129 0.219946 42.1191 0.288679 42.2978C0.357412 42.4765 0.439892 42.6414 0.549865 42.7652C0.659838 42.9026 0.797304 43.0126 0.948517 43.1088C1.09973 43.2051 1.27844 43.2875 1.45714 43.37L2.00701 43.59L2.58437 43.8374C2.74933 43.9199 2.88679 44.0024 2.99676 44.0986C3.10674 44.1948 3.18922 44.3048 3.2442 44.4285C3.29919 44.5522 3.32668 44.7172 3.32668 44.8959C3.32668 45.2671 3.18922 45.5557 2.94178 45.7619C2.68059 45.9819 2.28194 46.0781 1.75957 46.0781C1.42965 46.0781 1.14097 46.0506 0.907277 45.9956C0.673584 45.9269 0.439892 45.8719 0.233693 45.7894L0.0824797 46.2293C0.0412398 46.3805 0.0137466 46.5317 0 46.6692L0.398652 46.7929C0.398652 46.7929 0.536118 46.825 0.811051 46.8892L1.26469 46.9441H1.81455C2.63935 46.9579 3.28544 46.7654 3.73908 46.3805C4.19272 45.9956 4.42641 45.4733 4.42641 44.7997C4.42641 44.5247 4.38517 44.2773 4.31644 44.0711C4.23396 43.8649 4.12399 43.6862 3.98652 43.535L3.97277 43.5625Z" fill="#ACADAE"/>
<path d="M9.67756 45.9961H6.76327V43.6179H9.03146L9.05896 43.398V43.178V42.9581C9.05896 42.9581 9.03146 42.7794 9.03146 42.7381H6.76327V40.7586H9.59507L9.62257 40.5387V40.3187C9.62257 40.1675 9.62257 40.03 9.59507 39.8926H5.75977V46.8621H9.66381L9.6913 46.6422V46.4222C9.6913 46.2573 9.6913 46.1198 9.66381 45.9961H9.67756Z" fill="#ACADAE"/>
<path d="M15.9462 40.8142C15.7125 40.498 15.3963 40.2506 15.0251 40.0581C14.654 39.8794 14.2141 39.7832 13.7192 39.7832C13.2243 39.7832 12.7844 39.8794 12.4133 40.0581C12.0421 40.2368 11.7397 40.4843 11.4922 40.8142C11.2586 41.1304 11.0661 41.5153 10.9424 41.9552C10.8324 42.3951 10.7637 42.8762 10.7637 43.3986C10.7637 43.9209 10.8187 44.4021 10.9424 44.842C11.0661 45.2819 11.2448 45.6668 11.4922 45.9829C11.7259 46.2991 12.0421 46.5465 12.4133 46.7252C12.7844 46.904 13.2243 46.9864 13.7192 46.9864C14.2141 46.9864 14.654 46.904 15.0251 46.7252C15.3963 46.5465 15.6987 46.2991 15.9462 45.9829C16.1936 45.6668 16.3723 45.2819 16.4823 44.842C16.5922 44.4021 16.661 43.9209 16.661 43.3986C16.661 42.8762 16.606 42.3951 16.4823 41.9552C16.3585 41.5153 16.1798 41.1304 15.9462 40.8142ZM15.4925 44.5395C15.41 44.8695 15.3001 45.1581 15.1488 45.4056C14.9976 45.6393 14.8052 45.8317 14.5715 45.9554C14.3378 46.0792 14.0629 46.1479 13.7329 46.1479C13.403 46.1479 13.1281 46.0929 12.8944 45.9554C12.6607 45.8317 12.4683 45.653 12.317 45.4056C12.1658 45.1719 12.0421 44.8832 11.9734 44.5395C11.8909 44.2096 11.8634 43.8247 11.8634 43.3986C11.8634 42.9724 11.9046 42.6013 11.9734 42.2713C12.0559 41.9277 12.1658 41.639 12.317 41.4053C12.4683 41.1716 12.6607 40.9929 12.8944 40.8692C13.1281 40.7455 13.403 40.6767 13.7329 40.6767C14.0629 40.6767 14.3378 40.7455 14.5715 40.8692C14.8052 40.9929 14.9976 41.1716 15.1488 41.4053C15.3001 41.639 15.4238 41.9277 15.4925 42.2713C15.575 42.615 15.6025 42.9862 15.6025 43.3986C15.6025 43.811 15.5612 44.2096 15.4925 44.5395Z" fill="#ACADAE"/>
<path d="M22.5584 39.8799C22.3934 39.8799 22.2285 39.8799 22.0635 39.9074V43.8527C22.0635 44.2513 22.036 44.595 21.981 44.8837C21.9261 45.1723 21.8436 45.406 21.7336 45.571C21.6236 45.7497 21.4724 45.8734 21.28 45.9559C21.1013 46.0384 20.8676 46.0796 20.5789 46.0796C20.2902 46.0796 20.0703 46.0384 19.8778 45.9559C19.6854 45.8734 19.5341 45.7359 19.4242 45.571C19.3142 45.3923 19.2317 45.1723 19.1767 44.8837C19.1217 44.595 19.0942 44.2513 19.0942 43.8527V39.9074C18.943 39.8936 18.7781 39.8799 18.6131 39.8799C18.4482 39.8799 18.2695 39.8799 18.1045 39.9074V44.0314C18.1045 44.485 18.1457 44.9111 18.2282 45.2823C18.3107 45.6535 18.4619 45.9559 18.6544 46.2171C18.8468 46.4645 19.108 46.657 19.4242 46.7944C19.7403 46.9319 20.1252 46.9869 20.5789 46.9869C21.0325 46.9869 21.4174 46.9182 21.7336 46.7944C22.0498 46.657 22.311 46.4645 22.5034 46.2171C22.6959 45.9696 22.8471 45.6535 22.9296 45.2823C23.012 44.9111 23.0533 44.4988 23.0533 44.0314V39.9074C22.9021 39.8936 22.7371 39.8799 22.5447 39.8799H22.5584Z" fill="#ACADAE"/>
<path d="M28.4967 45.9971H25.7749V39.9074L25.5275 39.8799H25.28H25.0188C25.0188 39.8799 24.8264 39.9074 24.7852 39.9074V46.8769H28.4967C28.5105 46.7394 28.5242 46.5882 28.5242 46.437C28.5242 46.437 28.5242 46.2308 28.5242 46.2171C28.5242 46.2171 28.4967 46.0384 28.4967 45.9971Z" fill="#ACADAE"/>
<path d="M34.4079 39.9201L29.4866 39.9063C29.4454 40.1125 29.4316 40.3187 29.4316 40.5112C29.4316 40.7174 29.4454 40.9236 29.4866 41.1298C29.4866 41.1298 31.1775 41.1298 31.2187 41.1298V46.8621L31.6174 46.9034H31.9748H32.3184L32.6896 46.8484V41.116H34.4217C34.4629 40.9098 34.4767 40.7036 34.4767 40.4837C34.4767 40.2912 34.4629 40.085 34.4217 39.8926L34.4079 39.9201Z" fill="#ACADAE"/>
<path d="M39.7418 45.6533C39.7418 45.6533 37.1849 45.6396 37.1437 45.6396V43.8525H39.1507C39.1919 43.6326 39.2057 43.4264 39.2057 43.2339C39.2057 43.0415 39.1782 42.8353 39.1507 42.6291C39.1507 42.6291 37.1849 42.6153 37.1437 42.6153V41.1444H39.673C39.7143 40.9382 39.728 40.732 39.728 40.5121C39.728 40.3196 39.7143 40.1134 39.673 39.921L35.6865 39.9072V46.8768H39.7418C39.783 46.6706 39.7968 46.4644 39.7968 46.2444C39.7968 46.052 39.783 45.8458 39.7418 45.6533Z" fill="#ACADAE"/>
<path d="M45.8178 46.6701C45.7903 46.4777 45.7491 46.2852 45.6941 46.0928C45.6391 45.9003 45.5704 45.7216 45.4879 45.5429H45.4742C45.2542 45.6116 45.048 45.6804 44.8693 45.7078C44.6906 45.7353 44.4844 45.7491 44.237 45.7491C42.9173 45.7491 42.2575 44.9655 42.2575 43.4122C42.2575 42.6286 42.4224 42.0375 42.7523 41.6388C43.0823 41.2402 43.5497 41.0477 44.1683 41.0477C44.4019 41.0477 44.6081 41.0615 44.7868 41.089C44.9518 41.1165 45.158 41.1715 45.378 41.2539H45.3917L45.6116 40.6903C45.6804 40.5116 45.7216 40.3192 45.7216 40.1267V40.113C45.4192 39.9892 45.1305 39.9068 44.8693 39.8655C44.6081 39.8243 44.3195 39.8105 44.017 39.8105C43.4947 39.8105 43.0273 39.9068 42.6149 40.0855C42.2025 40.2642 41.8588 40.5116 41.5701 40.8415C41.2815 41.1577 41.0753 41.5426 40.924 41.9825C40.7728 42.4224 40.7041 42.9035 40.7041 43.4259C40.7041 43.9483 40.7728 44.4157 40.9103 44.8556C41.0478 45.2954 41.2677 45.6804 41.5426 45.9965C41.8176 46.3127 42.175 46.5739 42.5874 46.7388C42.9998 46.9175 43.4947 47 44.0308 47C44.3332 47 44.6356 46.9863 44.8968 46.945C45.1718 46.9038 45.4742 46.8213 45.8041 46.6976H45.8178V46.6701Z" fill="#ACADAE"/>
<path d="M52.2236 39.9066C51.9761 39.8653 51.7424 39.8516 51.5087 39.8516C51.2751 39.8516 51.0414 39.8653 50.7939 39.9066H50.7802V42.6284H48.4845V39.9066H48.4707C48.2233 39.8653 47.9759 39.8516 47.7559 39.8516C47.536 39.8516 47.2885 39.8653 47.0411 39.9066H47.0273V46.8761H47.0411C47.2748 46.9173 47.5222 46.9311 47.7559 46.9311C47.9759 46.9311 48.2233 46.9173 48.4707 46.8761H48.4845V43.8793H50.7802V46.8761H50.7939C51.0276 46.9173 51.2751 46.9311 51.5087 46.9311C51.7287 46.9311 51.9761 46.9173 52.2236 46.8761H52.2373V39.9066H52.2236Z" fill="#ACADAE"/>
<path d="M52.0448 16.8121H35.4664V0.219946C35.4664 0.0962268 35.3702 0 35.2602 0H17.1971C17.0734 0 16.9772 0.0962268 16.9772 0.219946V16.7846H0.384985C0.261265 16.7846 0.165039 16.8809 0.165039 17.0046V29.4865C0.165039 29.6102 0.261265 29.7065 0.384985 29.7065H5.77366V35.0951C5.77366 35.2189 5.86989 35.3151 5.99361 35.3151H18.4481C18.5718 35.3151 18.668 35.2189 18.668 35.0951V18.5167H22.3658C22.4896 18.5167 22.6408 18.4342 22.7095 18.338C22.7095 18.338 26.1737 13.6092 26.2011 13.5679C26.2011 13.5817 29.6516 18.3105 29.6516 18.3105C29.7203 18.4067 29.8715 18.5167 29.9952 18.5167H33.7755V35.0951C33.7755 35.2189 33.8855 35.3151 33.9955 35.3151H52.0448C52.1685 35.3151 52.2648 35.2189 52.2648 35.0951V28.2356C52.2648 28.1119 52.1685 28.0156 52.0448 28.0156H46.6699V24.1116H52.0448C52.1685 24.1116 52.2648 24.0154 52.2648 23.8916V17.0183C52.2648 16.8946 52.1685 16.8259 52.0448 16.8259V16.8121ZM16.9634 33.5968H7.4645V28.2081C7.4645 28.0844 7.36827 27.9881 7.24455 27.9881H1.85587V18.4892H16.9634V33.5968ZM33.7618 16.8121H30.6001L26.3111 10.8598C26.2424 10.7636 26.1324 10.7636 26.0637 10.8598L21.7197 16.8121C21.7197 16.8121 18.8192 16.8121 18.668 16.8121V1.70458H33.7755V16.8121H33.7618ZM50.5602 22.407H45.1852C45.0615 22.407 44.9653 22.5032 44.9653 22.6269V29.4865C44.9653 29.6102 45.0615 29.7065 45.1852 29.7065C45.1852 29.7065 50.5464 29.7065 50.5602 29.7065V33.6105H35.4664V18.503H50.5602V22.407Z" fill="#ACADAE"/>
</svg>
