<?xml version="1.0" encoding="UTF-8"?>
<svg xmlns="http://www.w3.org/2000/svg" version="1.1" viewBox="0 0 577.3 613.4">
  <defs>
    <style>
      .cls-1 {
        fill: #abacad;
      }

      .cls-2 {
        fill: #fff;
      }
    </style>
  </defs>
  <!-- Generator: Adobe Illustrator 28.7.0, SVG Export Plug-In . SVG Version: 1.2.0 Build 136)  -->
  <g>
    <g id="_레이어_1" data-name="레이어_1">
      <g>
        <g>
          <path class="cls-2" d="M447.5,574.6c-.5,0-.9,0-1.4-.3l-24.9-10.2c-.9-.4-1.6-1.1-2-2l-11.2-26.8c-.4-.9-.4-1.9,0-2.8l5.6-13.6-.3-.3c-8.1,2.3-16.9,3.5-26,3.5-16.7,0-31.7-3.7-44.4-11-8.9-5.1-16.5-11.7-22.7-19.5h-.8s-6.5,9.1-6.5,9.1c-.6.8-1.4,1.3-2.4,1.5l-71.3,11.6c-.2,0-.4,0-.6,0-.8,0-1.5-.2-2.1-.7l-11.1-8h-.9c0,0-12.7,12.4-12.7,12.4-.5.5-1.2.9-2,1l-19.7,3.2c-.2,0-.4,0-.6,0-.5,0-1.1-.1-1.6-.4l-16.4-7.9-.9.2-8.2,11.4c-.6.8-1.4,1.3-2.4,1.5l-69.2,11.2c-.2,0-.4,0-.6,0-.8,0-1.5-.2-2.1-.7l-23.6-17c-.8-.6-1.3-1.4-1.5-2.4l-2.9-17.6c-.2-1,0-1.9.6-2.7l17-23.6c.6-.8,1.4-1.3,2.4-1.5h.3c0,0,.5-.8.5-.8l-13.2-81.1-.7-.5h-.3c-.2,0-.4.1-.6.1-.8,0-1.5-.2-2.1-.7l-23.6-17c-.8-.6-1.3-1.4-1.5-2.4l-2.9-17.6c-.2-1,0-1.9.6-2.7l17-23.6c.6-.8,1.4-1.3,2.4-1.5l35.6-5.8-2.4-1.1c-.9-.4-1.6-1.1-1.9-2l-5.8-14.8c-.4-.9-.3-1.9,0-2.8l11.5-26.6c0-.3.1-.6.3-.9l.6-1.3-13.7-34.6-1.3-.6c-.3-.1-.6-.3-.8-.5l-26.6-11.5c-.9-.4-1.6-1.1-1.9-2l-5.8-14.8c-.4-.9-.3-1.9,0-2.8l11.5-26.6c.3-.8.9-1.4,1.7-1.8l.4-.8c-3-14.3-2.2-28,2.4-40.6,6.7-18.5,21.2-32.3,43-40.9,9.2-3.7,18.2-5.5,26.7-5.5s4.3.1,6.4.4l.8-.5,2.2-5.1c.4-.9,1.1-1.6,2-1.9l17.4-6.9c.4-.2.9-.3,1.3-.3s1,.1,1.4.3l26.6,11.5c.9.4,1.6,1.1,1.9,2l12.4,31.4c.4.9.3,1.9,0,2.8l-4.6,10.5.3.8,12.3,5.3c.9.4,1.6,1.1,1.9,2l6.9,17.5,1.8-.2,23.2-16.3c.1-.1.3-.2.4-.4l1.1-.8,6.3-36.6-.8-1.1c-.1-.2-.2-.3-.3-.5l-17-24.1c-.6-.8-.8-1.8-.6-2.7l2.7-15.6c.2-1,.7-1.8,1.5-2.4l23.7-16.7c.6-.4,1.4-.7,2.1-.7s.4,0,.6,0l41.5,7.2c1,.2,1.8.7,2.4,1.5l4.8,6.8.9.3c1.8-.7,3.7-1.3,5.5-1.8,5.7-1.6,11.7-2.4,17.9-2.4s8.6.4,13.1,1.2c23.9,4.1,36.2,16.8,42.2,26.7,8.2,13.4,10.7,30.1,7.3,49.5l-5.9,34.3,17.3-17.6c.7-.7,1.6-1.1,2.6-1.1,0,0,49.5-.5,49.5-.5,1,0,1.9.4,2.6,1l20.7,20.3c.7.7,1.1,1.6,1.1,2.6l1.3,136.5.3.6,20.5,20.1c.7.7,1.1,1.6,1.1,2.6l.2,15.9c0,1-.4,1.9-1,2.6l-20.3,20.7c-.7.7-1.6,1.1-2.6,1.1,0,0-40.6.4-40.6.4-1,0-1.9-.4-2.6-1l-5.8-5.7h-.9c-1.3.7-2.7,1.5-4.2,2.3-.2.1-.4.2-.7.3v.6c11.5,7.5,20.5,17.6,26.9,30.1,1.9,3.7,3.5,7.6,4.8,11.7h0s9.6-26,9.6-26c.3-.9,1-1.7,2-2.1l27.1-11.9c.5-.2,1-.3,1.5-.3s.9,0,1.4.3l22.4,9.2c.9.4,1.6,1.1,2,2l10.9,27.5c.4.9.3,2,0,2.9l-51.3,112.4c-.4.9-1.1,1.5-2,1.9l-3.9,1.5-.3.8,4.4,10.6c.4.9.4,1.9,0,2.8l-9.9,24.1c-.4.9-1.1,1.6-2,2l-26.8,11.2c-.4.2-.9.3-1.4.3Z"/>
          <path class="cls-1" d="M263.4,42.4l41.5,7.2,5.5,7.8,3.3,1c2-.8,4.2-1.6,6.3-2.2,5.4-1.5,11.1-2.3,16.9-2.3s8.2.4,12.4,1.1c22.6,3.9,34.1,15.8,39.7,25,7.7,12.6,10.1,28.4,6.8,46.9l-6.4,37.1,4.7,2.4,19.3-19.7,49.5-.5,20.7,20.3,1.4,137.3.8,1.9,21.1,20.6.2,15.9-20.3,20.7-40.6.4-6.7-6.6-3.5-.3c-1.6,1-3.2,2-5,2.9-.8.4-1.7.8-2.5,1.2l-.3,4.9c11.8,7.2,21.1,17.3,27.4,29.8,2.2,4.3,4,8.9,5.4,13.6l5.3.2,10.5-28.5,27.1-11.9,22.4,9.2,10.9,27.5-51.3,112.4-5.3,2.1-1.5,3.6,5,12-9.9,24.1-26.8,11.2-24.9-10.2-11.2-26.8,6.5-15.7-3.4-3.7c-8.4,2.7-17.5,4-27.1,4-16.1,0-30.4-3.5-42.6-10.5-9-5.2-16.6-11.9-22.7-20h-4.5s-7.6,10.6-7.6,10.6l-71.3,11.6-12.2-8.8-3.6.3-13.6,13.3-19.7,3.2-17.6-8.5-3.5.9-9,12.5-69.2,11.2-23.6-17-2.9-17.6,17-23.6,1.8-.3,2.3-3.2-13.7-84.1-3.2-2.3-1.8.3-23.6-17-2.9-17.6,17-23.6,38.6-6.3.7-5.3-5.2-2.3-5.8-14.8,12-27.7-.2.2,1.2-2.7-14.8-37.4-2.7-1.2h.3s-27.7-12-27.7-12l-5.8-14.8,11.5-26.6.9-.4,1.7-3.2c-3.2-14.1-2.5-27.5,2-39.9,6.3-17.5,20.1-30.5,41-38.8,8.8-3.5,17.3-5.3,25.3-5.3s4.8.2,7.1.5l2.9-1.6,2.7-6.2,17.4-6.9,26.6,11.5,12.4,31.4-5.2,11.9,1.4,3.6,13.7,5.9,7.9,20.1,4.8-.5-.5.7,25.6-18h-.1s2.3-1.6,2.3-1.6l6.9-39.6-1.6-2.3h0c0,0-17.4-24.6-17.4-24.6l2.7-15.6,23.7-16.7M263.4,35.1c-1.5,0-3,.5-4.2,1.3l-23.7,16.7c-1.6,1.1-2.7,2.8-3,4.7l-2.7,15.6c-.3,1.9.1,3.9,1.2,5.4l16.9,24c0,.2.2.3.3.5l-5.8,33.7c-.2.1-.3.2-.4.4l-20.7,14.6-5.6-14c-.7-1.8-2.1-3.2-3.9-4l-9.5-4.1,3.4-7.8c.8-1.8.8-3.8,0-5.6l-12.4-31.4c-.7-1.8-2.1-3.2-3.9-4l-26.6-11.5c-.9-.4-1.9-.6-2.9-.6-.9,0-1.8.2-2.7.5l-17.4,6.9c-1.8.7-3.2,2.1-4,3.9l-1.4,3.2c-1.6-.1-3.1-.2-4.7-.2-8.9,0-18.3,1.9-28,5.8-22.9,9-38,23.5-45.1,43.1-4.6,12.8-5.6,26.5-2.9,40.8-.6.6-1.2,1.4-1.5,2.2l-11.5,26.6c-.8,1.8-.8,3.8,0,5.6l5.8,14.8c.7,1.8,2.1,3.2,3.9,4l26.2,11.3c.3.2.7.4,1.1.6l12.6,31.8c-.2.4-.3.8-.4,1.2l-11.3,26.2c-.8,1.8-.8,3.8,0,5.6l5.6,14.1-28.1,4.6c-1.9.3-3.6,1.4-4.7,2.9l-17,23.6c-1.1,1.6-1.6,3.5-1.3,5.4l2.9,17.6c.3,1.9,1.4,3.6,2.9,4.7l23.6,17c.8.6,1.7,1,2.7,1.2l12.4,76.2c-.9.5-1.6,1.2-2.2,2l-17,23.6c-1.1,1.6-1.6,3.5-1.3,5.4l2.9,17.6c.3,1.9,1.4,3.6,2.9,4.7l23.6,17c1.2.9,2.7,1.4,4.3,1.4s.8,0,1.2,0l69.2-11.2c1.9-.3,3.6-1.4,4.7-2.9l6.8-9.4,14.2,6.9c1,.5,2.1.7,3.2.7s.8,0,1.2,0l19.7-3.2c1.5-.2,2.8-.9,3.9-2l10.9-10.6,9.1,6.6c1.2.9,2.7,1.4,4.3,1.4s.8,0,1.2,0l71.3-11.6c1.9-.3,3.6-1.4,4.7-2.9l4.1-5.8c5.9,6.8,13,12.6,21.1,17.2,13.3,7.6,28.8,11.5,46.2,11.5s13.8-.7,20.3-2l-3,7.3c-.7,1.8-.7,3.8,0,5.6l11.2,26.8c.7,1.8,2.2,3.2,4,3.9l24.9,10.2c.9.4,1.8.5,2.8.5s1.9-.2,2.8-.6l26.8-11.2c1.8-.7,3.2-2.2,3.9-4l9.9-24.1c.7-1.8.7-3.8,0-5.6l-3.2-7.7,1-.4c1.8-.7,3.2-2,4-3.8l51.3-112.4c.8-1.8.9-3.9.1-5.7l-10.9-27.5c-.7-1.8-2.2-3.3-4-4.1l-22.4-9.2c-.9-.4-1.8-.5-2.8-.5-1,0-2,.2-2.9.6l-5.3,2.3,16.7-17c1.4-1.4,2.1-3.2,2.1-5.2l-.2-15.9c0-1.9-.8-3.8-2.2-5.1l-19.7-19.3-1.3-135.4c0-1.9-.8-3.8-2.2-5.1l-20.7-20.3c-1.4-1.3-3.2-2.1-5.1-2.1,0,0,0,0,0,0l-49.5.5c-1.9,0-3.8.8-5.1,2.2l-9.1,9.3,3.9-22.8c3.5-20.3.9-37.8-7.8-52-6.5-10.5-19.5-24-44.7-28.4-4.6-.8-9.2-1.2-13.7-1.2-6.5,0-12.9.9-18.9,2.6-1.3.4-2.5.7-3.7,1.2l-3.5-5c-1.1-1.6-2.8-2.7-4.7-3l-41.5-7.2c-.4,0-.8-.1-1.2-.1h0ZM446.9,370.8l35.3-.3-8.2,3.6c-1.8.8-3.2,2.3-3.9,4.2l-6.2,17c-.5-1.1-1-2.1-1.5-3.1-4.1-8.1-9.2-15.2-15.4-21.3h0Z"/>
        </g>
        <g>
          <polygon class="cls-1" points="155.8 179.9 177.5 171.4 208.6 249.9 186.9 258.5 193.6 275.4 255.3 251 248.6 234.1 228.3 242.1 190.5 146.7 149.2 163 155.8 179.9"/>
          <path class="cls-1" d="M71.6,213.3l21.5-8.5,31.1,78.6-21.5,8.5,6.7,16.9,64.8-25.7-6.7-16.9-23.6,9.3-31.1-78.6,29.6-11.7-6.7-16.9-29.6,11.7-3-7.7c-4.3-11-4.7-19.8-1.2-26.3,3.5-6.6,10.5-11.9,20.8-16,8-3.2,15.2-4.4,21.8-3.8,6.6.6,12.3,3.6,17.3,8.8l19.5-7.7-13.3-33.6-19.5,7.7,10,25.4-.7.3c-5.8-8.9-12.5-14.4-20.1-16.4-7.6-2-16.3-1-26.2,2.9-15.5,6.1-25.5,15.3-29.9,27.4-4.4,12.1-3.6,25.7,2.3,40.7l2.4,6.1-21.5,8.5,6.7,16.9Z"/>
          <path class="cls-1" d="M428,227.1c-7.6-4-16.1-5.9-25.6-5.8-12,.1-22.4,2.9-31.2,8.3-8.8,5.4-15.6,12.9-20.3,22.4-4.8,9.5-7.1,20.5-7,32.8,0,9.1,1.6,17.5,4.4,25.1,2.9,7.6,6.9,14.3,12,19.9,5.1,5.6,11.2,9.9,18.1,12.9,6.9,3,14.6,4.5,22.8,4.4,8.1,0,15.1-1.7,20.9-4.7,5.8-3.1,10.5-7.3,14.1-12.6,3.6-5.3,6.1-11.5,7.5-18.4h.9s.3,32.8.3,32.8l42.9-.4-.2-18.2-21.7.2-1.6-160.1-51.8.5.2,18.2,30.6-.3.6,56.2c-4.6-5.6-9.9-10-16-13.2ZM440.5,306.4c-3.1,6.7-7.6,11.9-13.5,15.7-5.9,3.8-12.9,5.7-21.2,5.8-7.9,0-14.8-1.7-20.8-5.4-6-3.7-10.7-8.8-14-15.3-3.4-6.5-5.1-14.1-5.2-22.7,0-8.6,1.4-16.3,4.5-22.9,3.1-6.6,7.6-11.8,13.5-15.6,5.9-3.8,13-5.7,21.2-5.8,8.4,0,15.6,1.7,21.5,5.3,5.9,3.6,10.5,8.7,13.7,15.2,3.2,6.5,4.8,14,4.9,22.5h0s0,0,0,0c0,8.7-1.4,16.4-4.6,23.1Z"/>
          <path class="cls-1" d="M345.6,180.5l-18.8-3.3-3.1,17.9,61.1,10.6,3.1-17.9-21.5-3.7,10.5-60.5c2.4-13.8,1-24.9-4.3-33.5-5.2-8.5-14.1-13.9-26.5-16-7.5-1.3-14.4-1-20.8.7-6.4,1.8-11.9,5.1-16.7,10-4.7,4.9-8.5,11.4-11.1,19.4l-.9-.2,6.1-35.2-43.8-7.6-3.1,17.9,22.9,4-14.4,83.3-22.9-4-3.1,17.9,62.9,10.9,3.1-17.9-19.1-3.3,7.3-42.1h0c1.6-9.1,4.5-16.6,8.8-22.6,4.3-5.9,9.5-10.2,15.5-12.7,6-2.5,12.5-3.2,19.3-2,8.2,1.4,13.9,5,17,10.7,3.1,5.7,3.9,12.9,2.4,21.5l-10,57.7Z"/>
          <polygon class="cls-1" points="280 463.5 259.2 335.7 284.1 331.6 280.8 311.8 219.6 321.8 192.4 468.3 120.5 337.9 58.9 347.9 62.1 367.7 87 363.7 107.8 491.5 82.9 495.5 86.1 515.3 157.6 503.7 154.4 483.9 128.2 488.2 107.5 360.3 108.4 360.2 185.7 499.2 207.1 495.7 236.5 339.4 237.4 339.2 258.2 467 231.2 471.4 234.5 491.2 308.1 479.3 304.8 459.5 280 463.5"/>
          <path class="cls-1" d="M443.2,464.7l-20.1-7.6c-2.9,7-7.5,12.5-13.7,16.5-6.2,4-13.6,6-22.3,6s-15.5-1.8-21.5-5.5c-6-3.6-10.6-8.7-13.8-15.1-2.3-4.6-3.8-9.8-4.4-15.4h97.8c.1-.7.3-1.5.3-2.5,0-1,.1-2.4.1-4.2,0-12.4-2.4-23.4-7.2-32.8-4.8-9.5-11.6-16.9-20.5-22.2-8.9-5.3-19.5-8-31.8-8s-22.7,2.7-31.8,8.1c-9.1,5.4-16.2,12.8-21.2,22.3-5,9.5-7.6,20.4-7.6,32.7s2.5,23,7.4,32.3c5,9.4,12.1,16.7,21.3,22s20.2,8,32.9,8,24.7-3.1,34.5-9.3c9.9-6.2,17-14.6,21.3-25.3ZM365.7,398.5c5.9-3.7,12.7-5.6,20.5-5.6s15,1.8,20.8,5.5c5.7,3.7,10.1,8.7,13.1,15.1,2,4.3,3.4,9,4.1,14h-76.4c.8-4.9,2.2-9.4,4.2-13.5,3.3-6.6,7.8-11.8,13.7-15.5Z"/>
          <polygon class="cls-1" points="495.5 386.3 452.1 504.4 467.9 510.9 520.2 396.4 495.5 386.3"/>
          <rect class="cls-1" x="433.7" y="520.2" width="28.3" height="29.2" transform="translate(-217.1 745.6) rotate(-67.7)"/>
        </g>
      </g>
    </g>
  </g>
</svg>