<svg width="253" height="268" viewBox="0 0 253 268" fill="none" xmlns="http://www.w3.org/2000/svg">
<path d="M175.852 141.801C178.912 143.67 182.463 144.587 186.509 144.547C190.745 144.507 194.365 143.52 197.366 141.591C200.371 139.662 202.672 136.991 204.277 133.577C205.877 130.162 206.658 126.235 206.617 121.784C206.572 117.448 205.737 113.615 204.107 110.295C202.477 106.971 200.141 104.384 197.101 102.535C194.06 100.686 190.38 99.7784 186.069 99.8232C181.873 99.8631 178.262 100.85 175.237 102.779C172.211 104.708 169.911 107.359 168.325 110.734C166.74 114.108 165.97 118.001 166.015 122.417C166.06 126.793 166.945 130.651 168.671 133.99C170.396 137.33 172.791 139.936 175.852 141.806V141.801Z" fill="white"/>
<path d="M195.935 195.391C195.59 192.794 194.905 190.402 193.86 188.224C192.3 184.979 190.054 182.417 187.129 180.538C184.203 178.659 180.658 177.717 176.502 177.717C172.346 177.717 168.99 178.669 165.99 180.568C162.989 182.467 160.649 185.109 158.974 188.483C157.933 190.586 157.213 192.889 156.823 195.391H195.94H195.935Z" fill="white"/>
<path d="M93.7819 59.8048L92.5967 66.6332L100.483 77.7879L130.384 82.9516L136.17 78.8895L140.12 79.5723L144.196 85.3391L162.309 88.4692C157.419 91.9332 153.543 96.4789 150.772 102.011C147.742 108.062 146.242 114.99 146.317 122.611C146.372 128.224 147.317 133.507 149.117 138.312C150.957 143.221 153.593 147.562 156.953 151.206C160.384 154.929 164.475 157.83 169.111 159.839C169.271 159.908 169.431 159.963 169.591 160.033C164.605 160.791 160.014 162.391 155.893 164.818C149.882 168.357 145.156 173.311 141.846 179.546C138.62 185.617 136.985 192.555 136.985 200.181C136.985 202.608 137.15 204.961 137.48 207.234L132.299 203.516L131.939 203.575L128.683 201.238L121.687 158.318L124.032 155.074L124.393 155.014L132.394 143.944L131.124 136.139L120.017 128.164L90.7063 132.909L82.6599 140.754L74.6934 183.584L69.4224 184.436L48.3286 146.331L39.4519 142.025L69.9925 129.978L72.528 124.141L76.2537 122.671L82.1098 125.198L111.505 113.6L116.941 101.079L114.381 94.6397L100.913 88.8281L99.4029 87.273L84.6152 50.0357L78.159 47.2495L76.6838 43.5362L79.0892 37.9987L73.1531 23.046L60.5908 17.6281L52.7844 20.7083L51.6392 23.35L48.6536 25.0297C47.5184 24.8752 46.3532 24.7954 45.183 24.7954C41.2723 24.7954 37.0815 25.6627 32.7407 27.3773C22.4688 31.4295 15.6876 37.8043 12.582 46.3274C10.3716 52.3932 10.0416 58.9824 11.6068 65.9005L10.2166 68.5272L4.52054 81.6408L7.08101 88.0804L20.7235 93.9668L19.4783 93.9469L22.6989 95.3375L30.2753 114.407L28.88 117.617L29.7752 116.755L23.8691 130.352L26.4296 136.791L37.4416 141.541L8.71631 146.192L0.714844 157.262L1.98508 165.067L13.0921 173.042L13.4522 172.982L16.7078 175.32L23.7041 218.239L21.3586 221.484L20.9986 221.544L12.9971 232.614L14.2673 240.419L25.3744 248.394L59.6556 242.841L63.9314 236.925L67.4671 236.033L76.0637 240.185L85.2403 238.699L91.9016 232.225L95.5372 231.956L101.308 236.098L136.675 230.371L142.626 222.137C145.871 227.629 150.357 232.04 155.988 235.26C162.004 238.699 169.101 240.439 177.082 240.439C185.064 240.439 192.875 238.415 199.271 234.428C200.621 233.586 201.892 232.673 203.092 231.697L203.292 232.155L201.787 235.898L195.556 238.49L190.935 249.69L196.206 262.28L207.868 267.06L220.5 261.806L225.121 250.607L222.786 245.024L224.361 241.306L226.546 240.444L252.306 184.127L247.185 171.218L236.808 166.966L224.061 172.553L215.309 196.273C214.869 190.173 213.384 184.58 210.873 179.611C207.703 173.341 203.082 168.367 197.136 164.813C195.306 163.721 193.37 162.794 191.34 162.037C194.045 161.473 196.566 160.601 198.861 159.4C199.696 158.961 200.511 158.483 201.287 157.984L204.822 158.333L207.843 161.284L227.441 161.09L237.023 151.345L236.953 144.417L226.591 134.294L225.741 132.306L225.056 62.8452L215.279 53.2954L191.12 53.5346L181.538 63.2788L181.603 70.0723L177.152 63.7772L176.677 61.6689L180.138 41.7618C181.718 32.6705 180.603 24.945 176.822 18.7944C174.072 14.3235 168.471 8.59164 157.439 6.68766C155.358 6.32879 153.298 6.14438 151.312 6.14438C148.457 6.14438 145.671 6.5182 143.031 7.26085C141.981 7.55492 140.946 7.91378 139.95 8.32249L136.55 7.3406L134.059 3.81673L113.951 0.342712L102.759 8.20287L101.573 15.0263L111.16 29.3411L107.644 49.5522L93.7819 59.8197V59.8048ZM76.2687 52.0642L95.6122 100.775L106.029 96.6633L109.45 105.281L77.869 117.742L74.4484 109.124L85.5104 104.758L69.5875 64.6644L58.5254 69.0306L55.1048 60.4129L76.2637 52.0642H76.2687ZM34.7511 134.753L31.3305 126.135L42.3375 121.794L26.4146 81.7006L15.4075 86.0419L11.9869 77.4241L22.9939 73.0828L21.7587 69.9776C18.7131 62.3069 18.3131 55.3838 20.5635 49.2133C22.8139 43.0428 27.9098 38.3875 35.8613 35.2524C40.9122 33.2587 45.383 32.7652 49.2787 33.7671C53.1745 34.7689 56.6101 37.5501 59.5806 42.1157L59.9557 41.9662L54.8098 29.0121L64.7966 25.0696L71.5978 42.1954L61.611 46.138C59.0605 43.4714 56.105 41.9761 52.7444 41.6472C49.3838 41.3232 45.6631 41.9612 41.5823 43.5761C36.2814 45.6645 32.7257 48.3909 30.9154 51.7502C29.1 55.1096 29.3051 59.5855 31.5305 65.1878L33.0808 69.0954L48.2236 63.1193L51.6442 71.7371L36.5014 77.7132L52.4243 117.806L64.5065 113.042L67.9272 121.659L34.7361 134.753H34.7511ZM98.7778 227.904L97.1275 217.79L110.925 215.558L100.288 150.324L99.833 150.398L84.7503 230.176L73.8032 231.951L34.206 161.03L33.7509 161.105L44.3879 226.338L57.7853 224.17L59.4356 234.283L22.8339 240.21L21.1836 230.097L33.8959 228.038L23.259 162.804L10.5466 164.863L8.89634 154.75L40.4221 149.641L77.2539 216.181L91.1614 141.427L122.517 136.348L124.167 146.461L111.455 148.519L122.092 213.753L134.804 211.695L136.455 221.808L98.7728 227.913L98.7778 227.904ZM144.481 76.7811L146.071 67.65L155.688 69.3097L160.804 39.8728C161.574 35.4468 161.164 31.7833 159.579 28.8825C157.994 25.9817 155.093 24.1624 150.882 23.4347C147.392 22.8316 144.096 23.1805 141.001 24.4715C137.905 25.7674 135.249 27.9305 133.044 30.956C130.839 33.9814 129.328 37.8243 128.523 42.4746L124.788 63.9716L134.574 65.6613L132.989 74.7924L100.778 69.23L102.368 60.0989L114.091 62.1225L121.477 19.6367L109.755 17.6131L111.34 8.48199L133.764 12.3547L130.639 30.3379L131.094 30.4177C132.469 26.3306 134.369 23.036 136.8 20.5339C139.225 18.0318 142.076 16.3222 145.341 15.4051C148.607 14.488 152.158 14.3634 155.988 15.0263C162.364 16.1278 166.89 18.8592 169.571 23.2154C172.251 27.5717 172.981 33.2686 171.756 40.3014L166.39 71.1589L177.372 73.0579L175.787 82.189L144.486 76.7811H144.481ZM163.21 145.469C160.584 142.618 158.539 139.239 157.073 135.341C155.608 131.438 154.853 127.167 154.808 122.527C154.748 116.231 155.933 110.654 158.369 105.794C160.804 100.935 164.27 97.1218 168.771 94.3506C173.266 91.5843 178.597 90.1688 184.759 90.104C189.609 90.0542 193.98 91.051 197.871 93.0846C200.992 94.7144 203.712 96.9673 206.052 99.8133L205.767 71.129L190.115 71.2835L190.025 62.0178L216.534 61.7586L217.34 143.44L228.427 143.331L228.517 152.597L206.568 152.811L206.403 136.059H205.942C205.207 139.603 203.927 142.733 202.107 145.454C200.286 148.175 197.881 150.324 194.89 151.889C191.9 153.454 188.329 154.256 184.168 154.296C179.933 154.336 176.037 153.588 172.476 152.048C168.916 150.508 165.825 148.315 163.2 145.459L163.21 145.469ZM194.75 227.226C189.704 230.371 183.813 231.946 177.077 231.946C170.341 231.946 164.95 230.595 160.214 227.889C155.478 225.182 151.838 221.439 149.297 216.664C146.757 211.884 145.486 206.387 145.486 200.171C145.486 193.956 146.777 188.358 149.357 183.504C151.938 178.649 155.558 174.851 160.214 172.105C164.87 169.364 170.301 167.988 176.502 167.988C182.703 167.988 188.199 169.349 192.76 172.075C197.321 174.801 200.827 178.579 203.272 183.414C205.717 188.249 206.938 193.836 206.938 200.166C206.938 201.088 206.918 201.806 206.878 202.324C206.838 202.843 206.783 203.276 206.703 203.62H156.648C156.978 206.491 157.724 209.113 158.904 211.48C160.539 214.76 162.89 217.332 165.95 219.196C169.011 221.06 172.681 221.987 176.952 221.987C181.223 221.987 185.184 220.96 188.359 218.907C191.535 216.853 193.875 214.042 195.376 210.474L205.657 214.331C203.422 219.779 199.786 224.081 194.74 227.226H194.75ZM212.189 259.648L198.351 253.981L203.862 240.618L217.7 246.285L212.189 259.648ZM218.33 237.952L210.208 234.622L232.452 174.338L245.06 179.501L218.33 237.947V237.952Z" fill="white"/>
</svg>
